<mxfile host="app.diagrams.net" agent="Mozilla/5.0 (Windows NT 10.0; Win64; x64) AppleWebKit/537.36 (KHTML, like Gecko) Chrome/136.0.0.0 Safari/537.36" version="27.0.9">
  <diagram name="Page-1" id="DbrveXPtvejrHilxlQGw">
    <mxGraphModel dx="7723" dy="1757" grid="1" gridSize="10" guides="1" tooltips="1" connect="1" arrows="1" fold="1" page="1" pageScale="1" pageWidth="850" pageHeight="1100" math="0" shadow="0">
      <root>
        <mxCell id="0" />
        <mxCell id="1" parent="0" />
        <mxCell id="3TeQxFdsBs4gIvvP-iZM-9" value="Robot" style="swimlane;whiteSpace=wrap;html=1;" parent="1" vertex="1">
          <mxGeometry x="-788" y="330" width="200" height="200" as="geometry" />
        </mxCell>
        <mxCell id="3TeQxFdsBs4gIvvP-iZM-10" value="MovingRobot" style="swimlane;whiteSpace=wrap;html=1;" parent="1" vertex="1">
          <mxGeometry x="-1288" y="702" width="200" height="200" as="geometry" />
        </mxCell>
        <mxCell id="3TeQxFdsBs4gIvvP-iZM-11" value="ShootingRobot" style="swimlane;whiteSpace=wrap;html=1;" parent="1" vertex="1">
          <mxGeometry x="-967" y="702" width="200" height="200" as="geometry" />
        </mxCell>
        <mxCell id="3TeQxFdsBs4gIvvP-iZM-12" value="SeeingRobot" style="swimlane;whiteSpace=wrap;html=1;" parent="1" vertex="1">
          <mxGeometry x="-656" y="702" width="200" height="200" as="geometry" />
        </mxCell>
        <mxCell id="3TeQxFdsBs4gIvvP-iZM-13" value="ThinkingRobot" style="swimlane;whiteSpace=wrap;html=1;" parent="1" vertex="1">
          <mxGeometry x="-317" y="702" width="200" height="200" as="geometry" />
        </mxCell>
        <mxCell id="3TeQxFdsBs4gIvvP-iZM-14" value="GenericRobot" style="swimlane;whiteSpace=wrap;html=1;" parent="1" vertex="1">
          <mxGeometry x="-819" y="1075" width="200" height="200" as="geometry" />
        </mxCell>
        <mxCell id="3TeQxFdsBs4gIvvP-iZM-15" value="HideBot" style="swimlane;whiteSpace=wrap;html=1;" parent="1" vertex="1">
          <mxGeometry x="-1790" y="1446" width="200" height="200" as="geometry" />
        </mxCell>
        <mxCell id="3TeQxFdsBs4gIvvP-iZM-16" value="JumpBot" style="swimlane;whiteSpace=wrap;html=1;" parent="1" vertex="1">
          <mxGeometry x="-1559" y="1446" width="200" height="200" as="geometry" />
        </mxCell>
        <mxCell id="3TeQxFdsBs4gIvvP-iZM-17" value="LongShotBot" style="swimlane;whiteSpace=wrap;html=1;" parent="1" vertex="1">
          <mxGeometry x="-1329" y="1446" width="200" height="200" as="geometry" />
        </mxCell>
        <mxCell id="3TeQxFdsBs4gIvvP-iZM-18" value="SemiAutoBot" style="swimlane;whiteSpace=wrap;html=1;" parent="1" vertex="1">
          <mxGeometry x="-1099" y="1446" width="200" height="200" as="geometry" />
        </mxCell>
        <mxCell id="3TeQxFdsBs4gIvvP-iZM-19" value="ThirtyShotBot" style="swimlane;whiteSpace=wrap;html=1;" parent="1" vertex="1">
          <mxGeometry x="-869" y="1446" width="200" height="200" as="geometry" />
        </mxCell>
        <mxCell id="3TeQxFdsBs4gIvvP-iZM-20" value="KnightBot" style="swimlane;whiteSpace=wrap;html=1;" parent="1" vertex="1">
          <mxGeometry x="-631" y="1446" width="200" height="200" as="geometry" />
        </mxCell>
        <mxCell id="3TeQxFdsBs4gIvvP-iZM-21" value="QueenBot" style="swimlane;whiteSpace=wrap;html=1;" parent="1" vertex="1">
          <mxGeometry x="-379" y="1446" width="200" height="200" as="geometry" />
        </mxCell>
        <mxCell id="3TeQxFdsBs4gIvvP-iZM-22" value="ScoutBot" style="swimlane;whiteSpace=wrap;html=1;" parent="1" vertex="1">
          <mxGeometry x="-123" y="1446" width="200" height="200" as="geometry" />
        </mxCell>
        <mxCell id="3TeQxFdsBs4gIvvP-iZM-23" value="TrackBot" style="swimlane;whiteSpace=wrap;html=1;" parent="1" vertex="1">
          <mxGeometry x="122" y="1446" width="200" height="200" as="geometry" />
        </mxCell>
        <mxCell id="3TeQxFdsBs4gIvvP-iZM-24" value="VampireBot" style="swimlane;whiteSpace=wrap;html=1;" parent="1" vertex="1">
          <mxGeometry x="374" y="1446" width="200" height="200" as="geometry" />
        </mxCell>
        <mxCell id="3TeQxFdsBs4gIvvP-iZM-27" value="" style="endArrow=none;html=1;rounded=0;" parent="1" edge="1">
          <mxGeometry width="50" height="50" relative="1" as="geometry">
            <mxPoint x="-1216" y="699" as="sourcePoint" />
            <mxPoint x="-1216" y="634" as="targetPoint" />
          </mxGeometry>
        </mxCell>
        <mxCell id="3TeQxFdsBs4gIvvP-iZM-28" value="" style="endArrow=none;html=1;rounded=0;" parent="1" edge="1">
          <mxGeometry width="50" height="50" relative="1" as="geometry">
            <mxPoint x="-1217" y="634" as="sourcePoint" />
            <mxPoint x="-189" y="638" as="targetPoint" />
          </mxGeometry>
        </mxCell>
        <mxCell id="3TeQxFdsBs4gIvvP-iZM-29" value="" style="endArrow=classic;html=1;rounded=0;" parent="1" edge="1">
          <mxGeometry width="50" height="50" relative="1" as="geometry">
            <mxPoint x="-693" y="641" as="sourcePoint" />
            <mxPoint x="-693" y="530" as="targetPoint" />
          </mxGeometry>
        </mxCell>
        <mxCell id="3TeQxFdsBs4gIvvP-iZM-30" value="" style="endArrow=none;html=1;rounded=0;" parent="1" edge="1">
          <mxGeometry width="50" height="50" relative="1" as="geometry">
            <mxPoint x="-881" y="702" as="sourcePoint" />
            <mxPoint x="-881" y="637" as="targetPoint" />
          </mxGeometry>
        </mxCell>
        <mxCell id="3TeQxFdsBs4gIvvP-iZM-31" value="" style="endArrow=none;html=1;rounded=0;" parent="1" edge="1">
          <mxGeometry width="50" height="50" relative="1" as="geometry">
            <mxPoint x="-563" y="700" as="sourcePoint" />
            <mxPoint x="-563" y="635" as="targetPoint" />
          </mxGeometry>
        </mxCell>
        <mxCell id="3TeQxFdsBs4gIvvP-iZM-32" value="" style="endArrow=none;html=1;rounded=0;" parent="1" edge="1">
          <mxGeometry width="50" height="50" relative="1" as="geometry">
            <mxPoint x="-190" y="702" as="sourcePoint" />
            <mxPoint x="-190" y="637" as="targetPoint" />
          </mxGeometry>
        </mxCell>
        <mxCell id="3TeQxFdsBs4gIvvP-iZM-33" value="" style="endArrow=classic;html=1;rounded=0;" parent="1" edge="1">
          <mxGeometry width="50" height="50" relative="1" as="geometry">
            <mxPoint x="-1182" y="996" as="sourcePoint" />
            <mxPoint x="-1182" y="906" as="targetPoint" />
          </mxGeometry>
        </mxCell>
        <mxCell id="3TeQxFdsBs4gIvvP-iZM-34" value="" style="endArrow=classic;html=1;rounded=0;" parent="1" edge="1">
          <mxGeometry width="50" height="50" relative="1" as="geometry">
            <mxPoint x="-872" y="995" as="sourcePoint" />
            <mxPoint x="-872" y="905" as="targetPoint" />
          </mxGeometry>
        </mxCell>
        <mxCell id="3TeQxFdsBs4gIvvP-iZM-35" value="" style="endArrow=classic;html=1;rounded=0;" parent="1" edge="1">
          <mxGeometry width="50" height="50" relative="1" as="geometry">
            <mxPoint x="-564" y="996" as="sourcePoint" />
            <mxPoint x="-564" y="906" as="targetPoint" />
          </mxGeometry>
        </mxCell>
        <mxCell id="3TeQxFdsBs4gIvvP-iZM-36" value="" style="endArrow=classic;html=1;rounded=0;" parent="1" edge="1">
          <mxGeometry width="50" height="50" relative="1" as="geometry">
            <mxPoint x="-224" y="992" as="sourcePoint" />
            <mxPoint x="-224" y="902" as="targetPoint" />
          </mxGeometry>
        </mxCell>
        <mxCell id="3TeQxFdsBs4gIvvP-iZM-37" value="" style="endArrow=none;html=1;rounded=0;" parent="1" edge="1">
          <mxGeometry width="50" height="50" relative="1" as="geometry">
            <mxPoint x="-1179" y="996" as="sourcePoint" />
            <mxPoint x="-220" y="1002" as="targetPoint" />
          </mxGeometry>
        </mxCell>
        <mxCell id="3TeQxFdsBs4gIvvP-iZM-38" value="" style="endArrow=none;html=1;rounded=0;exitX=0.44;exitY=0;exitDx=0;exitDy=0;exitPerimeter=0;" parent="1" source="3TeQxFdsBs4gIvvP-iZM-14" edge="1">
          <mxGeometry width="50" height="50" relative="1" as="geometry">
            <mxPoint x="-742" y="1110" as="sourcePoint" />
            <mxPoint x="-731" y="1002" as="targetPoint" />
          </mxGeometry>
        </mxCell>
        <mxCell id="3TeQxFdsBs4gIvvP-iZM-39" value="" style="endArrow=classic;html=1;rounded=0;entryX=0.5;entryY=1;entryDx=0;entryDy=0;" parent="1" target="3TeQxFdsBs4gIvvP-iZM-14" edge="1">
          <mxGeometry width="50" height="50" relative="1" as="geometry">
            <mxPoint x="-717" y="1358" as="sourcePoint" />
            <mxPoint x="-692" y="1360" as="targetPoint" />
          </mxGeometry>
        </mxCell>
        <mxCell id="3TeQxFdsBs4gIvvP-iZM-41" value="" style="endArrow=none;html=1;rounded=0;" parent="1" edge="1">
          <mxGeometry width="50" height="50" relative="1" as="geometry">
            <mxPoint x="-1700" y="1445" as="sourcePoint" />
            <mxPoint x="-1700" y="1372" as="targetPoint" />
          </mxGeometry>
        </mxCell>
        <mxCell id="3TeQxFdsBs4gIvvP-iZM-42" value="" style="endArrow=none;html=1;rounded=0;" parent="1" edge="1">
          <mxGeometry width="50" height="50" relative="1" as="geometry">
            <mxPoint x="-1463" y="1453" as="sourcePoint" />
            <mxPoint x="-1460.5" y="1371" as="targetPoint" />
          </mxGeometry>
        </mxCell>
        <mxCell id="3TeQxFdsBs4gIvvP-iZM-43" value="" style="endArrow=none;html=1;rounded=0;exitX=0.435;exitY=0;exitDx=0;exitDy=0;exitPerimeter=0;" parent="1" source="3TeQxFdsBs4gIvvP-iZM-17" edge="1">
          <mxGeometry width="50" height="50" relative="1" as="geometry">
            <mxPoint x="-1237" y="1446" as="sourcePoint" />
            <mxPoint x="-1240" y="1371" as="targetPoint" />
          </mxGeometry>
        </mxCell>
        <mxCell id="3TeQxFdsBs4gIvvP-iZM-44" value="" style="endArrow=none;html=1;rounded=0;" parent="1" edge="1">
          <mxGeometry width="50" height="50" relative="1" as="geometry">
            <mxPoint x="-998" y="1446" as="sourcePoint" />
            <mxPoint x="-998" y="1371" as="targetPoint" />
          </mxGeometry>
        </mxCell>
        <mxCell id="3TeQxFdsBs4gIvvP-iZM-45" value="" style="endArrow=none;html=1;rounded=0;exitX=0.417;exitY=-0.003;exitDx=0;exitDy=0;exitPerimeter=0;" parent="1" source="3TeQxFdsBs4gIvvP-iZM-19" edge="1">
          <mxGeometry width="50" height="50" relative="1" as="geometry">
            <mxPoint x="-780" y="1446" as="sourcePoint" />
            <mxPoint x="-783" y="1371" as="targetPoint" />
          </mxGeometry>
        </mxCell>
        <mxCell id="3TeQxFdsBs4gIvvP-iZM-46" value="" style="endArrow=none;html=1;rounded=0;exitX=0.466;exitY=0.005;exitDx=0;exitDy=0;exitPerimeter=0;" parent="1" edge="1">
          <mxGeometry width="50" height="50" relative="1" as="geometry">
            <mxPoint x="-543" y="1443" as="sourcePoint" />
            <mxPoint x="-546" y="1368" as="targetPoint" />
          </mxGeometry>
        </mxCell>
        <mxCell id="3TeQxFdsBs4gIvvP-iZM-47" value="" style="endArrow=none;html=1;rounded=0;" parent="1" edge="1">
          <mxGeometry width="50" height="50" relative="1" as="geometry">
            <mxPoint x="-291" y="1445" as="sourcePoint" />
            <mxPoint x="-291" y="1371" as="targetPoint" />
          </mxGeometry>
        </mxCell>
        <mxCell id="3TeQxFdsBs4gIvvP-iZM-48" value="" style="endArrow=none;html=1;rounded=0;exitX=0.466;exitY=0.005;exitDx=0;exitDy=0;exitPerimeter=0;" parent="1" edge="1">
          <mxGeometry width="50" height="50" relative="1" as="geometry">
            <mxPoint x="-21.5" y="1446" as="sourcePoint" />
            <mxPoint x="-24.5" y="1371" as="targetPoint" />
          </mxGeometry>
        </mxCell>
        <mxCell id="3TeQxFdsBs4gIvvP-iZM-49" value="" style="endArrow=none;html=1;rounded=0;exitX=0.466;exitY=0.005;exitDx=0;exitDy=0;exitPerimeter=0;" parent="1" edge="1">
          <mxGeometry width="50" height="50" relative="1" as="geometry">
            <mxPoint x="212" y="1446" as="sourcePoint" />
            <mxPoint x="209" y="1371" as="targetPoint" />
          </mxGeometry>
        </mxCell>
        <mxCell id="3TeQxFdsBs4gIvvP-iZM-50" value="" style="endArrow=none;html=1;rounded=0;exitX=0.466;exitY=0.005;exitDx=0;exitDy=0;exitPerimeter=0;" parent="1" edge="1">
          <mxGeometry width="50" height="50" relative="1" as="geometry">
            <mxPoint x="460" y="1446" as="sourcePoint" />
            <mxPoint x="457" y="1371" as="targetPoint" />
          </mxGeometry>
        </mxCell>
        <mxCell id="0uM6pgvkFFP_AmX8pPwE-9" value="Robot" style="swimlane;whiteSpace=wrap;html=1;" parent="1" vertex="1">
          <mxGeometry x="-788" y="330" width="200" height="200" as="geometry" />
        </mxCell>
        <mxCell id="0uM6pgvkFFP_AmX8pPwE-10" value="MovingRobot" style="swimlane;whiteSpace=wrap;html=1;" parent="1" vertex="1">
          <mxGeometry x="-1288" y="702" width="200" height="200" as="geometry" />
        </mxCell>
        <mxCell id="0uM6pgvkFFP_AmX8pPwE-11" value="ShootingRobot" style="swimlane;whiteSpace=wrap;html=1;" parent="1" vertex="1">
          <mxGeometry x="-967" y="702" width="200" height="200" as="geometry" />
        </mxCell>
        <mxCell id="0uM6pgvkFFP_AmX8pPwE-12" value="SeeingRobot" style="swimlane;whiteSpace=wrap;html=1;" parent="1" vertex="1">
          <mxGeometry x="-656" y="702" width="200" height="200" as="geometry" />
        </mxCell>
        <mxCell id="0uM6pgvkFFP_AmX8pPwE-13" value="ThinkingRobot" style="swimlane;whiteSpace=wrap;html=1;" parent="1" vertex="1">
          <mxGeometry x="-317" y="702" width="200" height="200" as="geometry" />
        </mxCell>
        <mxCell id="0uM6pgvkFFP_AmX8pPwE-14" value="GenericRobot" style="swimlane;whiteSpace=wrap;html=1;" parent="1" vertex="1">
          <mxGeometry x="-819" y="1075" width="200" height="200" as="geometry" />
        </mxCell>
        <mxCell id="0uM6pgvkFFP_AmX8pPwE-15" value="HideBot" style="swimlane;whiteSpace=wrap;html=1;" parent="1" vertex="1">
          <mxGeometry x="-1790" y="1446" width="200" height="200" as="geometry" />
        </mxCell>
        <mxCell id="0uM6pgvkFFP_AmX8pPwE-16" value="JumpBot" style="swimlane;whiteSpace=wrap;html=1;" parent="1" vertex="1">
          <mxGeometry x="-1559" y="1446" width="200" height="200" as="geometry" />
        </mxCell>
        <mxCell id="0uM6pgvkFFP_AmX8pPwE-17" value="LongShotBot" style="swimlane;whiteSpace=wrap;html=1;" parent="1" vertex="1">
          <mxGeometry x="-1329" y="1446" width="200" height="200" as="geometry" />
        </mxCell>
        <mxCell id="0uM6pgvkFFP_AmX8pPwE-18" value="SemiAutoBot" style="swimlane;whiteSpace=wrap;html=1;" parent="1" vertex="1">
          <mxGeometry x="-1099" y="1446" width="200" height="200" as="geometry" />
        </mxCell>
        <mxCell id="0uM6pgvkFFP_AmX8pPwE-19" value="ThirtyShotBot" style="swimlane;whiteSpace=wrap;html=1;" parent="1" vertex="1">
          <mxGeometry x="-869" y="1446" width="200" height="200" as="geometry" />
        </mxCell>
        <mxCell id="0uM6pgvkFFP_AmX8pPwE-20" value="KnightBot" style="swimlane;whiteSpace=wrap;html=1;" parent="1" vertex="1">
          <mxGeometry x="-631" y="1446" width="200" height="200" as="geometry" />
        </mxCell>
        <mxCell id="0uM6pgvkFFP_AmX8pPwE-21" value="QueenBot" style="swimlane;whiteSpace=wrap;html=1;" parent="1" vertex="1">
          <mxGeometry x="-379" y="1446" width="200" height="200" as="geometry" />
        </mxCell>
        <mxCell id="0uM6pgvkFFP_AmX8pPwE-22" value="VampireBot" style="swimlane;whiteSpace=wrap;html=1;" parent="1" vertex="1">
          <mxGeometry x="-123" y="1446" width="200" height="200" as="geometry" />
        </mxCell>
        <mxCell id="0uM6pgvkFFP_AmX8pPwE-23" value="ScoutBot" style="swimlane;whiteSpace=wrap;html=1;" parent="1" vertex="1">
          <mxGeometry x="122" y="1446" width="200" height="200" as="geometry" />
        </mxCell>
        <mxCell id="0uM6pgvkFFP_AmX8pPwE-24" value="TrackBot" style="swimlane;whiteSpace=wrap;html=1;startSize=23;" parent="1" vertex="1">
          <mxGeometry x="374" y="1446" width="200" height="200" as="geometry" />
        </mxCell>
        <mxCell id="0uM6pgvkFFP_AmX8pPwE-27" value="" style="endArrow=none;html=1;rounded=0;" parent="1" edge="1">
          <mxGeometry width="50" height="50" relative="1" as="geometry">
            <mxPoint x="-1216" y="699" as="sourcePoint" />
            <mxPoint x="-1216" y="634" as="targetPoint" />
          </mxGeometry>
        </mxCell>
        <mxCell id="0uM6pgvkFFP_AmX8pPwE-28" value="" style="endArrow=none;html=1;rounded=0;" parent="1" edge="1">
          <mxGeometry width="50" height="50" relative="1" as="geometry">
            <mxPoint x="-1217" y="634" as="sourcePoint" />
            <mxPoint x="-189" y="638" as="targetPoint" />
          </mxGeometry>
        </mxCell>
        <mxCell id="0uM6pgvkFFP_AmX8pPwE-29" value="" style="endArrow=classic;html=1;rounded=0;" parent="1" edge="1">
          <mxGeometry width="50" height="50" relative="1" as="geometry">
            <mxPoint x="-693" y="641" as="sourcePoint" />
            <mxPoint x="-693" y="530" as="targetPoint" />
          </mxGeometry>
        </mxCell>
        <mxCell id="0uM6pgvkFFP_AmX8pPwE-30" value="" style="endArrow=none;html=1;rounded=0;" parent="1" edge="1">
          <mxGeometry width="50" height="50" relative="1" as="geometry">
            <mxPoint x="-881" y="702" as="sourcePoint" />
            <mxPoint x="-881" y="637" as="targetPoint" />
          </mxGeometry>
        </mxCell>
        <mxCell id="0uM6pgvkFFP_AmX8pPwE-31" value="" style="endArrow=none;html=1;rounded=0;" parent="1" edge="1">
          <mxGeometry width="50" height="50" relative="1" as="geometry">
            <mxPoint x="-563" y="700" as="sourcePoint" />
            <mxPoint x="-563" y="635" as="targetPoint" />
          </mxGeometry>
        </mxCell>
        <mxCell id="0uM6pgvkFFP_AmX8pPwE-32" value="" style="endArrow=none;html=1;rounded=0;" parent="1" edge="1">
          <mxGeometry width="50" height="50" relative="1" as="geometry">
            <mxPoint x="-190" y="702" as="sourcePoint" />
            <mxPoint x="-190" y="637" as="targetPoint" />
          </mxGeometry>
        </mxCell>
        <mxCell id="0uM6pgvkFFP_AmX8pPwE-33" value="" style="endArrow=classic;html=1;rounded=0;" parent="1" edge="1">
          <mxGeometry width="50" height="50" relative="1" as="geometry">
            <mxPoint x="-1182" y="996" as="sourcePoint" />
            <mxPoint x="-1182" y="906" as="targetPoint" />
          </mxGeometry>
        </mxCell>
        <mxCell id="0uM6pgvkFFP_AmX8pPwE-34" value="" style="endArrow=classic;html=1;rounded=0;" parent="1" edge="1">
          <mxGeometry width="50" height="50" relative="1" as="geometry">
            <mxPoint x="-872" y="995" as="sourcePoint" />
            <mxPoint x="-872" y="905" as="targetPoint" />
          </mxGeometry>
        </mxCell>
        <mxCell id="0uM6pgvkFFP_AmX8pPwE-35" value="" style="endArrow=classic;html=1;rounded=0;" parent="1" edge="1">
          <mxGeometry width="50" height="50" relative="1" as="geometry">
            <mxPoint x="-564" y="996" as="sourcePoint" />
            <mxPoint x="-564" y="906" as="targetPoint" />
          </mxGeometry>
        </mxCell>
        <mxCell id="0uM6pgvkFFP_AmX8pPwE-36" value="" style="endArrow=classic;html=1;rounded=0;" parent="1" edge="1">
          <mxGeometry width="50" height="50" relative="1" as="geometry">
            <mxPoint x="-224" y="992" as="sourcePoint" />
            <mxPoint x="-224" y="902" as="targetPoint" />
          </mxGeometry>
        </mxCell>
        <mxCell id="0uM6pgvkFFP_AmX8pPwE-37" value="" style="endArrow=none;html=1;rounded=0;" parent="1" edge="1">
          <mxGeometry width="50" height="50" relative="1" as="geometry">
            <mxPoint x="-1179" y="996" as="sourcePoint" />
            <mxPoint x="-220" y="1002" as="targetPoint" />
          </mxGeometry>
        </mxCell>
        <mxCell id="0uM6pgvkFFP_AmX8pPwE-38" value="" style="endArrow=none;html=1;rounded=0;exitX=0.44;exitY=0;exitDx=0;exitDy=0;exitPerimeter=0;" parent="1" source="0uM6pgvkFFP_AmX8pPwE-14" edge="1">
          <mxGeometry width="50" height="50" relative="1" as="geometry">
            <mxPoint x="-742" y="1110" as="sourcePoint" />
            <mxPoint x="-731" y="1002" as="targetPoint" />
          </mxGeometry>
        </mxCell>
        <mxCell id="0uM6pgvkFFP_AmX8pPwE-39" value="" style="endArrow=classic;html=1;rounded=0;entryX=0.5;entryY=1;entryDx=0;entryDy=0;" parent="1" target="0uM6pgvkFFP_AmX8pPwE-14" edge="1">
          <mxGeometry width="50" height="50" relative="1" as="geometry">
            <mxPoint x="-717" y="1358" as="sourcePoint" />
            <mxPoint x="-692" y="1360" as="targetPoint" />
          </mxGeometry>
        </mxCell>
        <mxCell id="0uM6pgvkFFP_AmX8pPwE-40" value="" style="endArrow=none;html=1;rounded=0;" parent="1" edge="1">
          <mxGeometry width="50" height="50" relative="1" as="geometry">
            <mxPoint x="-1698" y="1373" as="sourcePoint" />
            <mxPoint x="461" y="1375" as="targetPoint" />
          </mxGeometry>
        </mxCell>
        <mxCell id="0uM6pgvkFFP_AmX8pPwE-41" value="" style="endArrow=none;html=1;rounded=0;" parent="1" edge="1">
          <mxGeometry width="50" height="50" relative="1" as="geometry">
            <mxPoint x="-1700" y="1445" as="sourcePoint" />
            <mxPoint x="-1700" y="1372" as="targetPoint" />
          </mxGeometry>
        </mxCell>
        <mxCell id="0uM6pgvkFFP_AmX8pPwE-42" value="" style="endArrow=none;html=1;rounded=0;" parent="1" edge="1">
          <mxGeometry width="50" height="50" relative="1" as="geometry">
            <mxPoint x="-1463" y="1453" as="sourcePoint" />
            <mxPoint x="-1460.5" y="1371" as="targetPoint" />
          </mxGeometry>
        </mxCell>
        <mxCell id="0uM6pgvkFFP_AmX8pPwE-43" value="" style="endArrow=none;html=1;rounded=0;exitX=0.435;exitY=0;exitDx=0;exitDy=0;exitPerimeter=0;" parent="1" source="0uM6pgvkFFP_AmX8pPwE-17" edge="1">
          <mxGeometry width="50" height="50" relative="1" as="geometry">
            <mxPoint x="-1237" y="1446" as="sourcePoint" />
            <mxPoint x="-1240" y="1371" as="targetPoint" />
          </mxGeometry>
        </mxCell>
        <mxCell id="0uM6pgvkFFP_AmX8pPwE-44" value="" style="endArrow=none;html=1;rounded=0;" parent="1" edge="1">
          <mxGeometry width="50" height="50" relative="1" as="geometry">
            <mxPoint x="-998" y="1446" as="sourcePoint" />
            <mxPoint x="-998" y="1371" as="targetPoint" />
          </mxGeometry>
        </mxCell>
        <mxCell id="0uM6pgvkFFP_AmX8pPwE-45" value="" style="endArrow=none;html=1;rounded=0;exitX=0.417;exitY=-0.003;exitDx=0;exitDy=0;exitPerimeter=0;" parent="1" source="0uM6pgvkFFP_AmX8pPwE-19" edge="1">
          <mxGeometry width="50" height="50" relative="1" as="geometry">
            <mxPoint x="-780" y="1446" as="sourcePoint" />
            <mxPoint x="-783" y="1371" as="targetPoint" />
          </mxGeometry>
        </mxCell>
        <mxCell id="0uM6pgvkFFP_AmX8pPwE-46" value="" style="endArrow=none;html=1;rounded=0;exitX=0.466;exitY=0.005;exitDx=0;exitDy=0;exitPerimeter=0;" parent="1" edge="1">
          <mxGeometry width="50" height="50" relative="1" as="geometry">
            <mxPoint x="-543" y="1443" as="sourcePoint" />
            <mxPoint x="-546" y="1368" as="targetPoint" />
          </mxGeometry>
        </mxCell>
        <mxCell id="0uM6pgvkFFP_AmX8pPwE-48" value="" style="endArrow=none;html=1;rounded=0;exitX=0.5;exitY=0;exitDx=0;exitDy=0;" parent="1" source="0uM6pgvkFFP_AmX8pPwE-22" edge="1">
          <mxGeometry width="50" height="50" relative="1" as="geometry">
            <mxPoint x="-21.5" y="1446" as="sourcePoint" />
            <mxPoint x="-24.5" y="1371" as="targetPoint" />
          </mxGeometry>
        </mxCell>
        <mxCell id="0uM6pgvkFFP_AmX8pPwE-49" value="" style="endArrow=none;html=1;rounded=0;exitX=0.466;exitY=0.005;exitDx=0;exitDy=0;exitPerimeter=0;" parent="1" edge="1">
          <mxGeometry width="50" height="50" relative="1" as="geometry">
            <mxPoint x="212" y="1446" as="sourcePoint" />
            <mxPoint x="209" y="1371" as="targetPoint" />
          </mxGeometry>
        </mxCell>
        <mxCell id="0uM6pgvkFFP_AmX8pPwE-50" value="" style="endArrow=none;html=1;rounded=0;exitX=0.466;exitY=0.005;exitDx=0;exitDy=0;exitPerimeter=0;" parent="1" edge="1">
          <mxGeometry width="50" height="50" relative="1" as="geometry">
            <mxPoint x="460" y="1446" as="sourcePoint" />
            <mxPoint x="457" y="1371" as="targetPoint" />
          </mxGeometry>
        </mxCell>
        <mxCell id="0uM6pgvkFFP_AmX8pPwE-53" value="JumpLongShotBot" style="swimlane;whiteSpace=wrap;html=1;" parent="1" vertex="1">
          <mxGeometry x="-2610" y="1888" width="200" height="200" as="geometry" />
        </mxCell>
        <mxCell id="wj3mNSZLk9jR2dblGGt5-42" value="&lt;span style=&quot;color: rgb(0, 0, 0); font-family: Helvetica; font-size: 12px; font-style: normal; font-variant-ligatures: normal; font-variant-caps: normal; font-weight: 400; letter-spacing: normal; orphans: 2; text-align: center; text-indent: 0px; text-transform: none; widows: 2; word-spacing: 0px; -webkit-text-stroke-width: 0px; white-space: normal; background-color: rgb(236, 236, 236); text-decoration-thickness: initial; text-decoration-style: initial; text-decoration-color: initial; display: inline !important; float: none;&quot;&gt;is a&lt;/span&gt;" style="text;whiteSpace=wrap;html=1;" parent="0uM6pgvkFFP_AmX8pPwE-53" vertex="1">
          <mxGeometry x="80" y="-20" width="50" height="40" as="geometry" />
        </mxCell>
        <mxCell id="0uM6pgvkFFP_AmX8pPwE-54" value="is a&amp;nbsp;" style="text;html=1;align=center;verticalAlign=middle;whiteSpace=wrap;rounded=0;" parent="1" vertex="1">
          <mxGeometry x="-860" y="658" width="60" height="30" as="geometry" />
        </mxCell>
        <mxCell id="0uM6pgvkFFP_AmX8pPwE-55" value="&lt;span style=&quot;color: rgb(0, 0, 0); font-family: Helvetica; font-size: 12px; font-style: normal; font-variant-ligatures: normal; font-variant-caps: normal; font-weight: 400; letter-spacing: normal; orphans: 2; text-align: center; text-indent: 0px; text-transform: none; widows: 2; word-spacing: 0px; -webkit-text-stroke-width: 0px; white-space: normal; background-color: rgb(236, 236, 236); text-decoration-thickness: initial; text-decoration-style: initial; text-decoration-color: initial; display: inline !important; float: none;&quot;&gt;is a&amp;nbsp;&lt;/span&gt;" style="text;whiteSpace=wrap;html=1;" parent="1" vertex="1">
          <mxGeometry x="-1200" y="658" width="60" height="40" as="geometry" />
        </mxCell>
        <mxCell id="0uM6pgvkFFP_AmX8pPwE-56" value="&lt;span style=&quot;color: rgb(0, 0, 0); font-family: Helvetica; font-size: 12px; font-style: normal; font-variant-ligatures: normal; font-variant-caps: normal; font-weight: 400; letter-spacing: normal; orphans: 2; text-align: center; text-indent: 0px; text-transform: none; widows: 2; word-spacing: 0px; -webkit-text-stroke-width: 0px; white-space: normal; background-color: rgb(236, 236, 236); text-decoration-thickness: initial; text-decoration-style: initial; text-decoration-color: initial; display: inline !important; float: none;&quot;&gt;is a&amp;nbsp;&lt;/span&gt;" style="text;whiteSpace=wrap;html=1;" parent="1" vertex="1">
          <mxGeometry x="-720" y="1035" width="60" height="40" as="geometry" />
        </mxCell>
        <mxCell id="0uM6pgvkFFP_AmX8pPwE-57" value="&lt;span style=&quot;color: rgb(0, 0, 0); font-family: Helvetica; font-size: 12px; font-style: normal; font-variant-ligatures: normal; font-variant-caps: normal; font-weight: 400; letter-spacing: normal; orphans: 2; text-align: center; text-indent: 0px; text-transform: none; widows: 2; word-spacing: 0px; -webkit-text-stroke-width: 0px; white-space: normal; background-color: rgb(236, 236, 236); text-decoration-thickness: initial; text-decoration-style: initial; text-decoration-color: initial; display: inline !important; float: none;&quot;&gt;is a&amp;nbsp;&lt;/span&gt;" style="text;whiteSpace=wrap;html=1;" parent="1" vertex="1">
          <mxGeometry x="-550" y="658" width="60" height="40" as="geometry" />
        </mxCell>
        <mxCell id="0uM6pgvkFFP_AmX8pPwE-58" value="&lt;span style=&quot;color: rgb(0, 0, 0); font-family: Helvetica; font-size: 12px; font-style: normal; font-variant-ligatures: normal; font-variant-caps: normal; font-weight: 400; letter-spacing: normal; orphans: 2; text-align: center; text-indent: 0px; text-transform: none; widows: 2; word-spacing: 0px; -webkit-text-stroke-width: 0px; white-space: normal; background-color: rgb(236, 236, 236); text-decoration-thickness: initial; text-decoration-style: initial; text-decoration-color: initial; display: inline !important; float: none;&quot;&gt;is a&amp;nbsp;&lt;/span&gt;" style="text;whiteSpace=wrap;html=1;" parent="1" vertex="1">
          <mxGeometry x="-177" y="658" width="60" height="40" as="geometry" />
        </mxCell>
        <mxCell id="0uM6pgvkFFP_AmX8pPwE-59" value="&lt;span style=&quot;color: rgb(0, 0, 0); font-family: Helvetica; font-size: 12px; font-style: normal; font-variant-ligatures: normal; font-variant-caps: normal; font-weight: 400; letter-spacing: normal; orphans: 2; text-align: center; text-indent: 0px; text-transform: none; widows: 2; word-spacing: 0px; -webkit-text-stroke-width: 0px; white-space: normal; background-color: rgb(236, 236, 236); text-decoration-thickness: initial; text-decoration-style: initial; text-decoration-color: initial; display: inline !important; float: none;&quot;&gt;is a&amp;nbsp;&lt;/span&gt;" style="text;whiteSpace=wrap;html=1;" parent="1" vertex="1">
          <mxGeometry x="-1444" y="1403" width="60" height="40" as="geometry" />
        </mxCell>
        <mxCell id="0uM6pgvkFFP_AmX8pPwE-60" value="&lt;span style=&quot;color: rgb(0, 0, 0); font-family: Helvetica; font-size: 12px; font-style: normal; font-variant-ligatures: normal; font-variant-caps: normal; font-weight: 400; letter-spacing: normal; orphans: 2; text-align: center; text-indent: 0px; text-transform: none; widows: 2; word-spacing: 0px; -webkit-text-stroke-width: 0px; white-space: normal; background-color: rgb(236, 236, 236); text-decoration-thickness: initial; text-decoration-style: initial; text-decoration-color: initial; display: inline !important; float: none;&quot;&gt;is a&amp;nbsp;&lt;/span&gt;" style="text;whiteSpace=wrap;html=1;" parent="1" vertex="1">
          <mxGeometry x="-1689" y="1395" width="60" height="40" as="geometry" />
        </mxCell>
        <mxCell id="0uM6pgvkFFP_AmX8pPwE-62" value="&lt;span style=&quot;color: rgb(0, 0, 0); font-family: Helvetica; font-size: 12px; font-style: normal; font-variant-ligatures: normal; font-variant-caps: normal; font-weight: 400; letter-spacing: normal; orphans: 2; text-align: center; text-indent: 0px; text-transform: none; widows: 2; word-spacing: 0px; -webkit-text-stroke-width: 0px; white-space: normal; background-color: rgb(236, 236, 236); text-decoration-thickness: initial; text-decoration-style: initial; text-decoration-color: initial; display: inline !important; float: none;&quot;&gt;is a&amp;nbsp;&lt;/span&gt;" style="text;whiteSpace=wrap;html=1;" parent="1" vertex="1">
          <mxGeometry x="-1229" y="1403" width="60" height="40" as="geometry" />
        </mxCell>
        <mxCell id="0uM6pgvkFFP_AmX8pPwE-63" value="&lt;span style=&quot;color: rgb(0, 0, 0); font-family: Helvetica; font-size: 12px; font-style: normal; font-variant-ligatures: normal; font-variant-caps: normal; font-weight: 400; letter-spacing: normal; orphans: 2; text-align: center; text-indent: 0px; text-transform: none; widows: 2; word-spacing: 0px; -webkit-text-stroke-width: 0px; white-space: normal; background-color: rgb(236, 236, 236); text-decoration-thickness: initial; text-decoration-style: initial; text-decoration-color: initial; display: inline !important; float: none;&quot;&gt;is a&amp;nbsp;&lt;/span&gt;" style="text;whiteSpace=wrap;html=1;" parent="1" vertex="1">
          <mxGeometry x="-989" y="1403" width="60" height="40" as="geometry" />
        </mxCell>
        <mxCell id="0uM6pgvkFFP_AmX8pPwE-64" value="&lt;span style=&quot;color: rgb(0, 0, 0); font-family: Helvetica; font-size: 12px; font-style: normal; font-variant-ligatures: normal; font-variant-caps: normal; font-weight: 400; letter-spacing: normal; orphans: 2; text-align: center; text-indent: 0px; text-transform: none; widows: 2; word-spacing: 0px; -webkit-text-stroke-width: 0px; white-space: normal; background-color: rgb(236, 236, 236); text-decoration-thickness: initial; text-decoration-style: initial; text-decoration-color: initial; display: inline !important; float: none;&quot;&gt;is a&amp;nbsp;&lt;/span&gt;" style="text;whiteSpace=wrap;html=1;" parent="1" vertex="1">
          <mxGeometry x="-768" y="1403" width="60" height="40" as="geometry" />
        </mxCell>
        <mxCell id="0uM6pgvkFFP_AmX8pPwE-65" value="&lt;span style=&quot;color: rgb(0, 0, 0); font-family: Helvetica; font-size: 12px; font-style: normal; font-variant-ligatures: normal; font-variant-caps: normal; font-weight: 400; letter-spacing: normal; orphans: 2; text-align: center; text-indent: 0px; text-transform: none; widows: 2; word-spacing: 0px; -webkit-text-stroke-width: 0px; white-space: normal; background-color: rgb(236, 236, 236); text-decoration-thickness: initial; text-decoration-style: initial; text-decoration-color: initial; display: inline !important; float: none;&quot;&gt;is a&amp;nbsp;&lt;/span&gt;" style="text;whiteSpace=wrap;html=1;" parent="1" vertex="1">
          <mxGeometry x="-526" y="1395" width="60" height="40" as="geometry" />
        </mxCell>
        <mxCell id="0uM6pgvkFFP_AmX8pPwE-66" value="&lt;span style=&quot;color: rgb(0, 0, 0); font-family: Helvetica; font-size: 12px; font-style: normal; font-variant-ligatures: normal; font-variant-caps: normal; font-weight: 400; letter-spacing: normal; orphans: 2; text-align: center; text-indent: 0px; text-transform: none; widows: 2; word-spacing: 0px; -webkit-text-stroke-width: 0px; white-space: normal; background-color: rgb(236, 236, 236); text-decoration-thickness: initial; text-decoration-style: initial; text-decoration-color: initial; display: inline !important; float: none;&quot;&gt;is a&amp;nbsp;&lt;/span&gt;" style="text;whiteSpace=wrap;html=1;" parent="1" vertex="1">
          <mxGeometry x="-269" y="1395" width="40" height="40" as="geometry" />
        </mxCell>
        <mxCell id="0uM6pgvkFFP_AmX8pPwE-67" value="&lt;span style=&quot;color: rgb(0, 0, 0); font-family: Helvetica; font-size: 12px; font-style: normal; font-variant-ligatures: normal; font-variant-caps: normal; font-weight: 400; letter-spacing: normal; orphans: 2; text-align: center; text-indent: 0px; text-transform: none; widows: 2; word-spacing: 0px; -webkit-text-stroke-width: 0px; white-space: normal; background-color: rgb(236, 236, 236); text-decoration-thickness: initial; text-decoration-style: initial; text-decoration-color: initial; display: inline !important; float: none;&quot;&gt;is a&amp;nbsp;&lt;/span&gt;" style="text;whiteSpace=wrap;html=1;" parent="1" vertex="1">
          <mxGeometry x="-9" y="1395" width="60" height="40" as="geometry" />
        </mxCell>
        <mxCell id="0uM6pgvkFFP_AmX8pPwE-68" value="&lt;span style=&quot;color: rgb(0, 0, 0); font-family: Helvetica; font-size: 12px; font-style: normal; font-variant-ligatures: normal; font-variant-caps: normal; font-weight: 400; letter-spacing: normal; orphans: 2; text-align: center; text-indent: 0px; text-transform: none; widows: 2; word-spacing: 0px; -webkit-text-stroke-width: 0px; white-space: normal; background-color: rgb(236, 236, 236); text-decoration-thickness: initial; text-decoration-style: initial; text-decoration-color: initial; display: inline !important; float: none;&quot;&gt;is a&amp;nbsp;&lt;/span&gt;" style="text;whiteSpace=wrap;html=1;" parent="1" vertex="1">
          <mxGeometry x="226" y="1395" width="60" height="40" as="geometry" />
        </mxCell>
        <mxCell id="0uM6pgvkFFP_AmX8pPwE-69" value="&lt;span style=&quot;color: rgb(0, 0, 0); font-family: Helvetica; font-size: 12px; font-style: normal; font-variant-ligatures: normal; font-variant-caps: normal; font-weight: 400; letter-spacing: normal; orphans: 2; text-align: center; text-indent: 0px; text-transform: none; widows: 2; word-spacing: 0px; -webkit-text-stroke-width: 0px; white-space: normal; background-color: rgb(236, 236, 236); text-decoration-thickness: initial; text-decoration-style: initial; text-decoration-color: initial; display: inline !important; float: none;&quot;&gt;is a&amp;nbsp;&lt;/span&gt;" style="text;whiteSpace=wrap;html=1;" parent="1" vertex="1">
          <mxGeometry x="471" y="1395" width="60" height="40" as="geometry" />
        </mxCell>
        <mxCell id="0uM6pgvkFFP_AmX8pPwE-70" value="JumpSemiAutoBot" style="swimlane;whiteSpace=wrap;html=1;" parent="1" vertex="1">
          <mxGeometry x="-2360" y="1888" width="200" height="200" as="geometry" />
        </mxCell>
        <mxCell id="0uM6pgvkFFP_AmX8pPwE-71" value="JumpThirtyShotBot" style="swimlane;whiteSpace=wrap;html=1;" parent="1" vertex="1">
          <mxGeometry x="-2115" y="1888" width="200" height="200" as="geometry" />
        </mxCell>
        <mxCell id="0uM6pgvkFFP_AmX8pPwE-72" value="JumpKnightBot" style="swimlane;whiteSpace=wrap;html=1;" parent="1" vertex="1">
          <mxGeometry x="-1870" y="1888" width="200" height="200" as="geometry" />
        </mxCell>
        <mxCell id="0uM6pgvkFFP_AmX8pPwE-73" value="JumpQueenBot" style="swimlane;whiteSpace=wrap;html=1;" parent="1" vertex="1">
          <mxGeometry x="-1629" y="1888" width="200" height="200" as="geometry" />
        </mxCell>
        <mxCell id="0uM6pgvkFFP_AmX8pPwE-74" value="JumpVampireBot" style="swimlane;whiteSpace=wrap;html=1;" parent="1" vertex="1">
          <mxGeometry x="-1384" y="1888" width="200" height="200" as="geometry" />
        </mxCell>
        <mxCell id="0uM6pgvkFFP_AmX8pPwE-75" value="HideScoutBot" style="swimlane;whiteSpace=wrap;html=1;" parent="1" vertex="1">
          <mxGeometry x="-1140" y="1888" width="200" height="200" as="geometry" />
        </mxCell>
        <mxCell id="0uM6pgvkFFP_AmX8pPwE-76" value="HideTrackBot" style="swimlane;whiteSpace=wrap;html=1;" parent="1" vertex="1">
          <mxGeometry x="-908" y="1888" width="200" height="200" as="geometry" />
        </mxCell>
        <mxCell id="0uM6pgvkFFP_AmX8pPwE-77" value="JumpScoutBot" style="swimlane;whiteSpace=wrap;html=1;" parent="1" vertex="1">
          <mxGeometry x="-669" y="1888" width="200" height="200" as="geometry" />
        </mxCell>
        <mxCell id="0uM6pgvkFFP_AmX8pPwE-78" value="JumpTrackBot" style="swimlane;whiteSpace=wrap;html=1;" parent="1" vertex="1">
          <mxGeometry x="-429" y="1888" width="200" height="200" as="geometry" />
        </mxCell>
        <mxCell id="0uM6pgvkFFP_AmX8pPwE-79" value="LongShotScoutBot" style="swimlane;whiteSpace=wrap;html=1;" parent="1" vertex="1">
          <mxGeometry x="-190" y="1888" width="200" height="200" as="geometry" />
        </mxCell>
        <mxCell id="0uM6pgvkFFP_AmX8pPwE-80" value="LongShotTrackBot" style="swimlane;whiteSpace=wrap;html=1;" parent="1" vertex="1">
          <mxGeometry x="51" y="1888" width="200" height="200" as="geometry" />
        </mxCell>
        <mxCell id="0uM6pgvkFFP_AmX8pPwE-81" value="SemiAutoScoutBot" style="swimlane;whiteSpace=wrap;html=1;" parent="1" vertex="1">
          <mxGeometry x="298" y="1888" width="200" height="200" as="geometry" />
        </mxCell>
        <mxCell id="0uM6pgvkFFP_AmX8pPwE-82" value="SemiAutoTrackBot" style="swimlane;whiteSpace=wrap;html=1;" parent="1" vertex="1">
          <mxGeometry x="540" y="1888" width="200" height="200" as="geometry" />
        </mxCell>
        <mxCell id="0uM6pgvkFFP_AmX8pPwE-83" value="ThirtyShotScoutBot" style="swimlane;whiteSpace=wrap;html=1;" parent="1" vertex="1">
          <mxGeometry x="770" y="1888" width="200" height="200" as="geometry" />
        </mxCell>
        <mxCell id="0uM6pgvkFFP_AmX8pPwE-84" value="ThirtyShotTrackBot" style="swimlane;whiteSpace=wrap;html=1;" parent="1" vertex="1">
          <mxGeometry x="1000" y="1888" width="200" height="200" as="geometry" />
        </mxCell>
        <mxCell id="0uM6pgvkFFP_AmX8pPwE-85" value="KnightScoutBot" style="swimlane;whiteSpace=wrap;html=1;" parent="1" vertex="1">
          <mxGeometry x="1230" y="1888" width="200" height="200" as="geometry" />
        </mxCell>
        <mxCell id="0uM6pgvkFFP_AmX8pPwE-86" value="KnightTrackBot" style="swimlane;whiteSpace=wrap;html=1;" parent="1" vertex="1">
          <mxGeometry x="1460" y="1888" width="200" height="200" as="geometry" />
        </mxCell>
        <mxCell id="0uM6pgvkFFP_AmX8pPwE-87" value="HideQueenBot" style="swimlane;whiteSpace=wrap;html=1;" parent="1" vertex="1">
          <mxGeometry x="-3140" y="1888" width="200" height="200" as="geometry" />
        </mxCell>
        <mxCell id="0uM6pgvkFFP_AmX8pPwE-88" value="HideVampireBot" style="swimlane;whiteSpace=wrap;html=1;" parent="1" vertex="1">
          <mxGeometry x="-2870" y="1888" width="200" height="200" as="geometry" />
        </mxCell>
        <mxCell id="0uM6pgvkFFP_AmX8pPwE-89" value="QueenScoutBot" style="swimlane;whiteSpace=wrap;html=1;" parent="1" vertex="1">
          <mxGeometry x="1700" y="1888" width="200" height="200" as="geometry" />
        </mxCell>
        <mxCell id="0uM6pgvkFFP_AmX8pPwE-90" value="QueenTrackBot" style="swimlane;whiteSpace=wrap;html=1;" parent="1" vertex="1">
          <mxGeometry x="1935" y="1888" width="200" height="200" as="geometry" />
        </mxCell>
        <mxCell id="wj3mNSZLk9jR2dblGGt5-112" value="&lt;span style=&quot;color: rgb(0, 0, 0); font-family: Helvetica; font-size: 12px; font-style: normal; font-variant-ligatures: normal; font-variant-caps: normal; font-weight: 400; letter-spacing: normal; orphans: 2; text-align: center; text-indent: 0px; text-transform: none; widows: 2; word-spacing: 0px; -webkit-text-stroke-width: 0px; white-space: normal; background-color: rgb(236, 236, 236); text-decoration-thickness: initial; text-decoration-style: initial; text-decoration-color: initial; display: inline !important; float: none;&quot;&gt;is a&amp;nbsp;&lt;/span&gt;" style="text;whiteSpace=wrap;html=1;" parent="0uM6pgvkFFP_AmX8pPwE-90" vertex="1">
          <mxGeometry x="-35" y="-5" width="60" height="40" as="geometry" />
        </mxCell>
        <mxCell id="0uM6pgvkFFP_AmX8pPwE-91" value="HideThirtyShotBot" style="swimlane;whiteSpace=wrap;html=1;" parent="1" vertex="1">
          <mxGeometry x="-3670" y="1888" width="200" height="200" as="geometry" />
        </mxCell>
        <mxCell id="0uM6pgvkFFP_AmX8pPwE-92" value="HideKnightBot" style="swimlane;whiteSpace=wrap;html=1;" parent="1" vertex="1">
          <mxGeometry x="-3410" y="1888" width="200" height="200" as="geometry" />
        </mxCell>
        <mxCell id="0uM6pgvkFFP_AmX8pPwE-93" value="HideLongShotBot" style="swimlane;whiteSpace=wrap;html=1;" parent="1" vertex="1">
          <mxGeometry x="-4190" y="1888" width="200" height="200" as="geometry" />
        </mxCell>
        <mxCell id="0uM6pgvkFFP_AmX8pPwE-94" value="HideSemiAutoBot" style="swimlane;whiteSpace=wrap;html=1;" parent="1" vertex="1">
          <mxGeometry x="-3930" y="1888" width="200" height="200" as="geometry" />
        </mxCell>
        <mxCell id="0uM6pgvkFFP_AmX8pPwE-95" value="VampireScoutBot" style="swimlane;whiteSpace=wrap;html=1;" parent="1" vertex="1">
          <mxGeometry x="2170" y="1888" width="200" height="200" as="geometry" />
        </mxCell>
        <mxCell id="0uM6pgvkFFP_AmX8pPwE-96" value="VampireTrackBot" style="swimlane;whiteSpace=wrap;html=1;" parent="1" vertex="1">
          <mxGeometry x="2410" y="1888" width="200" height="200" as="geometry" />
        </mxCell>
        <mxCell id="wj3mNSZLk9jR2dblGGt5-1" value="" style="endArrow=classic;html=1;rounded=0;entryX=0.25;entryY=1;entryDx=0;entryDy=0;strokeColor=#FF2D12;exitX=0.468;exitY=0.004;exitDx=0;exitDy=0;exitPerimeter=0;" parent="1" source="0uM6pgvkFFP_AmX8pPwE-93" target="0uM6pgvkFFP_AmX8pPwE-15" edge="1">
          <mxGeometry width="50" height="50" relative="1" as="geometry">
            <mxPoint x="-4090" y="1868" as="sourcePoint" />
            <mxPoint x="-3160" y="1688" as="targetPoint" />
          </mxGeometry>
        </mxCell>
        <mxCell id="wj3mNSZLk9jR2dblGGt5-2" value="" style="endArrow=classic;html=1;rounded=0;strokeColor=#FF250A;" parent="1" edge="1">
          <mxGeometry width="50" height="50" relative="1" as="geometry">
            <mxPoint x="-4080" y="1888" as="sourcePoint" />
            <mxPoint x="-1290" y="1648" as="targetPoint" />
          </mxGeometry>
        </mxCell>
        <mxCell id="wj3mNSZLk9jR2dblGGt5-3" value="" style="endArrow=classic;html=1;rounded=0;exitX=0.5;exitY=0;exitDx=0;exitDy=0;strokeColor=#E416FF;" parent="1" source="0uM6pgvkFFP_AmX8pPwE-94" edge="1">
          <mxGeometry width="50" height="50" relative="1" as="geometry">
            <mxPoint x="-3480" y="1688" as="sourcePoint" />
            <mxPoint x="-1690" y="1658" as="targetPoint" />
          </mxGeometry>
        </mxCell>
        <mxCell id="wj3mNSZLk9jR2dblGGt5-4" value="" style="endArrow=classic;html=1;rounded=0;exitX=0.656;exitY=-0.002;exitDx=0;exitDy=0;exitPerimeter=0;entryX=0.25;entryY=1;entryDx=0;entryDy=0;strokeColor=#E416FF;" parent="1" source="0uM6pgvkFFP_AmX8pPwE-94" target="0uM6pgvkFFP_AmX8pPwE-18" edge="1">
          <mxGeometry width="50" height="50" relative="1" as="geometry">
            <mxPoint x="-3280" y="1688" as="sourcePoint" />
            <mxPoint x="-1400" y="1708" as="targetPoint" />
          </mxGeometry>
        </mxCell>
        <mxCell id="wj3mNSZLk9jR2dblGGt5-6" value="is a" style="text;html=1;align=center;verticalAlign=middle;whiteSpace=wrap;rounded=0;" parent="1" vertex="1">
          <mxGeometry x="-4040" y="1848" width="60" height="30" as="geometry" />
        </mxCell>
        <mxCell id="wj3mNSZLk9jR2dblGGt5-7" value="&lt;span style=&quot;color: rgb(0, 0, 0); font-family: Helvetica; font-size: 12px; font-style: normal; font-variant-ligatures: normal; font-variant-caps: normal; font-weight: 400; letter-spacing: normal; orphans: 2; text-align: center; text-indent: 0px; text-transform: none; widows: 2; word-spacing: 0px; -webkit-text-stroke-width: 0px; white-space: normal; background-color: rgb(236, 236, 236); text-decoration-thickness: initial; text-decoration-style: initial; text-decoration-color: initial; display: inline !important; float: none;&quot;&gt;is a&lt;/span&gt;" style="text;whiteSpace=wrap;html=1;" parent="1" vertex="1">
          <mxGeometry x="-3980" y="1878" width="30" height="30" as="geometry" />
        </mxCell>
        <mxCell id="wj3mNSZLk9jR2dblGGt5-8" value="&lt;span style=&quot;color: rgb(0, 0, 0); font-family: Helvetica; font-size: 12px; font-style: normal; font-variant-ligatures: normal; font-variant-caps: normal; font-weight: 400; letter-spacing: normal; orphans: 2; text-align: center; text-indent: 0px; text-transform: none; widows: 2; word-spacing: 0px; -webkit-text-stroke-width: 0px; white-space: normal; background-color: rgb(236, 236, 236); text-decoration-thickness: initial; text-decoration-style: initial; text-decoration-color: initial; display: inline !important; float: none;&quot;&gt;is a&lt;/span&gt;" style="text;whiteSpace=wrap;html=1;" parent="1" vertex="1">
          <mxGeometry x="-3750" y="1858" width="30" height="20" as="geometry" />
        </mxCell>
        <mxCell id="wj3mNSZLk9jR2dblGGt5-11" value="&lt;span style=&quot;color: rgb(0, 0, 0); font-family: Helvetica; font-size: 12px; font-style: normal; font-variant-ligatures: normal; font-variant-caps: normal; font-weight: 400; letter-spacing: normal; orphans: 2; text-align: center; text-indent: 0px; text-transform: none; widows: 2; word-spacing: 0px; -webkit-text-stroke-width: 0px; white-space: normal; background-color: rgb(236, 236, 236); text-decoration-thickness: initial; text-decoration-style: initial; text-decoration-color: initial; display: inline !important; float: none;&quot;&gt;is a&lt;/span&gt;" style="text;whiteSpace=wrap;html=1;" parent="1" vertex="1">
          <mxGeometry x="-3730" y="1878" width="50" height="40" as="geometry" />
        </mxCell>
        <mxCell id="wj3mNSZLk9jR2dblGGt5-12" value="" style="endArrow=classic;html=1;rounded=0;exitX=0.3;exitY=0;exitDx=0;exitDy=0;exitPerimeter=0;entryX=0.5;entryY=1;entryDx=0;entryDy=0;strokeColor=#6A47FF;" parent="1" source="0uM6pgvkFFP_AmX8pPwE-92" target="0uM6pgvkFFP_AmX8pPwE-15" edge="1">
          <mxGeometry width="50" height="50" relative="1" as="geometry">
            <mxPoint x="-3240" y="1898" as="sourcePoint" />
            <mxPoint x="-3190" y="1848" as="targetPoint" />
          </mxGeometry>
        </mxCell>
        <mxCell id="wj3mNSZLk9jR2dblGGt5-13" value="" style="endArrow=classic;html=1;rounded=0;exitX=0.64;exitY=-0.012;exitDx=0;exitDy=0;exitPerimeter=0;strokeColor=#6A47FF;" parent="1" source="0uM6pgvkFFP_AmX8pPwE-92" edge="1">
          <mxGeometry width="50" height="50" relative="1" as="geometry">
            <mxPoint x="-3060" y="1748" as="sourcePoint" />
            <mxPoint x="-589.199951171875" y="1648" as="targetPoint" />
          </mxGeometry>
        </mxCell>
        <mxCell id="wj3mNSZLk9jR2dblGGt5-14" value="is a" style="text;html=1;align=center;verticalAlign=middle;whiteSpace=wrap;rounded=0;" parent="1" vertex="1">
          <mxGeometry x="-3330" y="1858" width="60" height="30" as="geometry" />
        </mxCell>
        <mxCell id="wj3mNSZLk9jR2dblGGt5-15" value="&lt;span style=&quot;color: rgb(0, 0, 0); font-family: Helvetica; font-size: 12px; font-style: normal; font-variant-ligatures: normal; font-variant-caps: normal; font-weight: 400; letter-spacing: normal; orphans: 2; text-align: center; text-indent: 0px; text-transform: none; widows: 2; word-spacing: 0px; -webkit-text-stroke-width: 0px; white-space: normal; background-color: rgb(236, 236, 236); text-decoration-thickness: initial; text-decoration-style: initial; text-decoration-color: initial; display: inline !important; float: none;&quot;&gt;is a&lt;/span&gt;" style="text;whiteSpace=wrap;html=1;" parent="1" vertex="1">
          <mxGeometry x="-3210" y="1878" width="40" height="30" as="geometry" />
        </mxCell>
        <mxCell id="wj3mNSZLk9jR2dblGGt5-16" value="" style="endArrow=classic;html=1;rounded=0;exitX=0.4;exitY=0;exitDx=0;exitDy=0;exitPerimeter=0;strokeColor=#43FF62;" parent="1" source="0uM6pgvkFFP_AmX8pPwE-91" edge="1">
          <mxGeometry width="50" height="50" relative="1" as="geometry">
            <mxPoint x="-3530" y="1878" as="sourcePoint" />
            <mxPoint x="-1648.6667887369792" y="1648" as="targetPoint" />
          </mxGeometry>
        </mxCell>
        <mxCell id="wj3mNSZLk9jR2dblGGt5-17" value="is a" style="text;html=1;align=center;verticalAlign=middle;whiteSpace=wrap;rounded=0;" parent="1" vertex="1">
          <mxGeometry x="-3570" y="1863" width="40" height="20" as="geometry" />
        </mxCell>
        <mxCell id="wj3mNSZLk9jR2dblGGt5-19" value="" style="endArrow=classic;html=1;rounded=0;exitX=0.727;exitY=0.006;exitDx=0;exitDy=0;exitPerimeter=0;strokeColor=#43FF62;" parent="1" source="0uM6pgvkFFP_AmX8pPwE-91" edge="1">
          <mxGeometry width="50" height="50" relative="1" as="geometry">
            <mxPoint x="-3470" y="1878" as="sourcePoint" />
            <mxPoint x="-829.3330891927084" y="1648" as="targetPoint" />
          </mxGeometry>
        </mxCell>
        <mxCell id="wj3mNSZLk9jR2dblGGt5-20" value="&lt;span style=&quot;color: rgb(0, 0, 0); font-family: Helvetica; font-size: 12px; font-style: normal; font-variant-ligatures: normal; font-variant-caps: normal; font-weight: 400; letter-spacing: normal; orphans: 2; text-align: center; text-indent: 0px; text-transform: none; widows: 2; word-spacing: 0px; -webkit-text-stroke-width: 0px; white-space: normal; background-color: rgb(236, 236, 236); text-decoration-thickness: initial; text-decoration-style: initial; text-decoration-color: initial; display: inline !important; float: none;&quot;&gt;is a&lt;/span&gt;" style="text;whiteSpace=wrap;html=1;" parent="1" vertex="1">
          <mxGeometry x="-3460" y="1883" width="50" height="40" as="geometry" />
        </mxCell>
        <mxCell id="wj3mNSZLk9jR2dblGGt5-21" value="" style="endArrow=classic;html=1;rounded=0;exitX=0.5;exitY=0;exitDx=0;exitDy=0;strokeColor=#FFE26C;" parent="1" source="0uM6pgvkFFP_AmX8pPwE-87" edge="1">
          <mxGeometry width="50" height="50" relative="1" as="geometry">
            <mxPoint x="-2790" y="1878" as="sourcePoint" />
            <mxPoint x="-1617.3333740234375" y="1648" as="targetPoint" />
          </mxGeometry>
        </mxCell>
        <mxCell id="wj3mNSZLk9jR2dblGGt5-22" value="" style="endArrow=classic;html=1;rounded=0;exitX=0.75;exitY=0;exitDx=0;exitDy=0;entryX=0.25;entryY=1;entryDx=0;entryDy=0;strokeColor=#FFE26C;" parent="1" source="0uM6pgvkFFP_AmX8pPwE-87" target="0uM6pgvkFFP_AmX8pPwE-21" edge="1">
          <mxGeometry width="50" height="50" relative="1" as="geometry">
            <mxPoint x="-2980" y="1878" as="sourcePoint" />
            <mxPoint x="-2930" y="1828" as="targetPoint" />
          </mxGeometry>
        </mxCell>
        <mxCell id="wj3mNSZLk9jR2dblGGt5-24" value="is a" style="text;html=1;align=center;verticalAlign=middle;whiteSpace=wrap;rounded=0;" parent="1" vertex="1">
          <mxGeometry x="-2950" y="1888" width="60" height="30" as="geometry" />
        </mxCell>
        <mxCell id="wj3mNSZLk9jR2dblGGt5-25" value="&lt;span style=&quot;color: rgb(0, 0, 0); font-family: Helvetica; font-size: 12px; font-style: normal; font-variant-ligatures: normal; font-variant-caps: normal; font-weight: 400; letter-spacing: normal; orphans: 2; text-align: center; text-indent: 0px; text-transform: none; widows: 2; word-spacing: 0px; -webkit-text-stroke-width: 0px; white-space: normal; background-color: rgb(236, 236, 236); text-decoration-thickness: initial; text-decoration-style: initial; text-decoration-color: initial; display: inline !important; float: none;&quot;&gt;is a&lt;/span&gt;" style="text;whiteSpace=wrap;html=1;" parent="1" vertex="1">
          <mxGeometry x="-3050" y="1858" width="30" height="30" as="geometry" />
        </mxCell>
        <mxCell id="wj3mNSZLk9jR2dblGGt5-26" value="" style="endArrow=classic;html=1;rounded=0;exitX=0.4;exitY=0;exitDx=0;exitDy=0;exitPerimeter=0;" parent="1" source="0uM6pgvkFFP_AmX8pPwE-88" edge="1">
          <mxGeometry width="50" height="50" relative="1" as="geometry">
            <mxPoint x="-2660" y="1888" as="sourcePoint" />
            <mxPoint x="-1608.0000813802083" y="1648" as="targetPoint" />
          </mxGeometry>
        </mxCell>
        <mxCell id="wj3mNSZLk9jR2dblGGt5-27" value="" style="endArrow=classic;html=1;rounded=0;exitX=0.65;exitY=0;exitDx=0;exitDy=0;exitPerimeter=0;" parent="1" source="0uM6pgvkFFP_AmX8pPwE-88" edge="1">
          <mxGeometry width="50" height="50" relative="1" as="geometry">
            <mxPoint x="-2540" y="1888" as="sourcePoint" />
            <mxPoint x="-90" y="1648" as="targetPoint" />
          </mxGeometry>
        </mxCell>
        <mxCell id="wj3mNSZLk9jR2dblGGt5-28" value="is a" style="text;html=1;align=center;verticalAlign=middle;whiteSpace=wrap;rounded=0;" parent="1" vertex="1">
          <mxGeometry x="-2680" y="1883" width="60" height="30" as="geometry" />
        </mxCell>
        <mxCell id="wj3mNSZLk9jR2dblGGt5-29" value="&lt;span style=&quot;color: rgb(0, 0, 0); font-family: Helvetica; font-size: 12px; font-style: normal; font-variant-ligatures: normal; font-variant-caps: normal; font-weight: 400; letter-spacing: normal; orphans: 2; text-align: center; text-indent: 0px; text-transform: none; widows: 2; word-spacing: 0px; -webkit-text-stroke-width: 0px; white-space: normal; background-color: rgb(236, 236, 236); text-decoration-thickness: initial; text-decoration-style: initial; text-decoration-color: initial; display: inline !important; float: none;&quot;&gt;is a&lt;/span&gt;" style="text;whiteSpace=wrap;html=1;" parent="1" vertex="1">
          <mxGeometry x="-2810" y="1863" width="30" height="30" as="geometry" />
        </mxCell>
        <mxCell id="wj3mNSZLk9jR2dblGGt5-30" value="" style="endArrow=classic;html=1;rounded=0;exitX=0.375;exitY=-0.018;exitDx=0;exitDy=0;exitPerimeter=0;strokeColor=#26E3FF;" parent="1" source="0uM6pgvkFFP_AmX8pPwE-75" edge="1">
          <mxGeometry width="50" height="50" relative="1" as="geometry">
            <mxPoint x="-320" y="1908" as="sourcePoint" />
            <mxPoint x="150" y="1648" as="targetPoint" />
          </mxGeometry>
        </mxCell>
        <mxCell id="wj3mNSZLk9jR2dblGGt5-31" value="" style="endArrow=classic;html=1;rounded=0;exitX=0.375;exitY=-0.018;exitDx=0;exitDy=0;exitPerimeter=0;strokeColor=#26E3FF;" parent="1" edge="1">
          <mxGeometry width="50" height="50" relative="1" as="geometry">
            <mxPoint x="-1030" y="1888" as="sourcePoint" />
            <mxPoint x="-1670" y="1652" as="targetPoint" />
          </mxGeometry>
        </mxCell>
        <mxCell id="wj3mNSZLk9jR2dblGGt5-32" value="is a" style="text;html=1;align=center;verticalAlign=middle;whiteSpace=wrap;rounded=0;" parent="1" vertex="1">
          <mxGeometry x="-1140" y="1863" width="60" height="30" as="geometry" />
        </mxCell>
        <mxCell id="wj3mNSZLk9jR2dblGGt5-33" value="is a" style="text;html=1;align=center;verticalAlign=middle;whiteSpace=wrap;rounded=0;" parent="1" vertex="1">
          <mxGeometry x="-968" y="1863" width="60" height="30" as="geometry" />
        </mxCell>
        <mxCell id="wj3mNSZLk9jR2dblGGt5-34" value="" style="endArrow=classic;html=1;rounded=0;exitX=0.39;exitY=0;exitDx=0;exitDy=0;exitPerimeter=0;strokeColor=#F19C99;" parent="1" source="0uM6pgvkFFP_AmX8pPwE-76" edge="1">
          <mxGeometry width="50" height="50" relative="1" as="geometry">
            <mxPoint x="-1020" y="1738" as="sourcePoint" />
            <mxPoint x="-1640" y="1648" as="targetPoint" />
          </mxGeometry>
        </mxCell>
        <mxCell id="wj3mNSZLk9jR2dblGGt5-35" value="" style="endArrow=classic;html=1;rounded=0;entryX=0.25;entryY=1;entryDx=0;entryDy=0;strokeColor=#F19C99;" parent="1" target="0uM6pgvkFFP_AmX8pPwE-24" edge="1">
          <mxGeometry width="50" height="50" relative="1" as="geometry">
            <mxPoint x="-850" y="1888" as="sourcePoint" />
            <mxPoint x="-970" y="1688" as="targetPoint" />
          </mxGeometry>
        </mxCell>
        <mxCell id="wj3mNSZLk9jR2dblGGt5-36" value="is a" style="text;html=1;align=center;verticalAlign=middle;whiteSpace=wrap;rounded=0;" parent="1" vertex="1">
          <mxGeometry x="-879" y="1858" width="60" height="30" as="geometry" />
        </mxCell>
        <mxCell id="wj3mNSZLk9jR2dblGGt5-37" value="&lt;span style=&quot;color: rgb(0, 0, 0); font-family: Helvetica; font-size: 12px; font-style: normal; font-variant-ligatures: normal; font-variant-caps: normal; font-weight: 400; letter-spacing: normal; orphans: 2; text-align: center; text-indent: 0px; text-transform: none; widows: 2; word-spacing: 0px; -webkit-text-stroke-width: 0px; white-space: normal; background-color: rgb(236, 236, 236); text-decoration-thickness: initial; text-decoration-style: initial; text-decoration-color: initial; display: inline !important; float: none;&quot;&gt;is a&lt;/span&gt;" style="text;whiteSpace=wrap;html=1;" parent="1" vertex="1">
          <mxGeometry x="-767" y="1868" width="50" height="40" as="geometry" />
        </mxCell>
        <mxCell id="wj3mNSZLk9jR2dblGGt5-38" value="" style="endArrow=classic;html=1;rounded=0;exitX=0.5;exitY=0;exitDx=0;exitDy=0;" parent="1" source="0uM6pgvkFFP_AmX8pPwE-53" edge="1">
          <mxGeometry width="50" height="50" relative="1" as="geometry">
            <mxPoint x="-2440" y="1878" as="sourcePoint" />
            <mxPoint x="-1529.0587660845588" y="1648" as="targetPoint" />
          </mxGeometry>
        </mxCell>
        <mxCell id="wj3mNSZLk9jR2dblGGt5-39" value="" style="endArrow=classic;html=1;rounded=0;exitX=0.75;exitY=0;exitDx=0;exitDy=0;" parent="1" source="0uM6pgvkFFP_AmX8pPwE-53" edge="1">
          <mxGeometry width="50" height="50" relative="1" as="geometry">
            <mxPoint x="-1850" y="1758" as="sourcePoint" />
            <mxPoint x="-1270" y="1648" as="targetPoint" />
          </mxGeometry>
        </mxCell>
        <mxCell id="wj3mNSZLk9jR2dblGGt5-40" value="" style="endArrow=classic;html=1;rounded=0;exitX=0.343;exitY=-0.005;exitDx=0;exitDy=0;exitPerimeter=0;strokeColor=#EA6B66;" parent="1" source="0uM6pgvkFFP_AmX8pPwE-70" edge="1">
          <mxGeometry width="50" height="50" relative="1" as="geometry">
            <mxPoint x="-2350" y="1878" as="sourcePoint" />
            <mxPoint x="-1499.0587660845588" y="1648" as="targetPoint" />
          </mxGeometry>
        </mxCell>
        <mxCell id="wj3mNSZLk9jR2dblGGt5-41" value="" style="endArrow=classic;html=1;rounded=0;exitX=0.616;exitY=0.004;exitDx=0;exitDy=0;exitPerimeter=0;strokeColor=#EA6B66;" parent="1" source="0uM6pgvkFFP_AmX8pPwE-70" edge="1">
          <mxGeometry width="50" height="50" relative="1" as="geometry">
            <mxPoint x="-1810" y="1758" as="sourcePoint" />
            <mxPoint x="-1025.2941176470588" y="1648" as="targetPoint" />
          </mxGeometry>
        </mxCell>
        <mxCell id="wj3mNSZLk9jR2dblGGt5-43" value="&lt;span style=&quot;color: rgb(0, 0, 0); font-family: Helvetica; font-size: 12px; font-style: normal; font-variant-ligatures: normal; font-variant-caps: normal; font-weight: 400; letter-spacing: normal; orphans: 2; text-align: center; text-indent: 0px; text-transform: none; widows: 2; word-spacing: 0px; -webkit-text-stroke-width: 0px; white-space: normal; background-color: rgb(236, 236, 236); text-decoration-thickness: initial; text-decoration-style: initial; text-decoration-color: initial; display: inline !important; float: none;&quot;&gt;is a&lt;/span&gt;" style="text;whiteSpace=wrap;html=1;" parent="1" vertex="1">
          <mxGeometry x="-2410" y="1878" width="50" height="40" as="geometry" />
        </mxCell>
        <mxCell id="wj3mNSZLk9jR2dblGGt5-44" value="&lt;span style=&quot;color: rgb(0, 0, 0); font-family: Helvetica; font-size: 12px; font-style: normal; font-variant-ligatures: normal; font-variant-caps: normal; font-weight: 400; letter-spacing: normal; orphans: 2; text-align: center; text-indent: 0px; text-transform: none; widows: 2; word-spacing: 0px; -webkit-text-stroke-width: 0px; white-space: normal; background-color: rgb(236, 236, 236); text-decoration-thickness: initial; text-decoration-style: initial; text-decoration-color: initial; display: inline !important; float: none;&quot;&gt;is a&lt;/span&gt;" style="text;whiteSpace=wrap;html=1;" parent="1" vertex="1">
          <mxGeometry x="-2310" y="1858" width="50" height="40" as="geometry" />
        </mxCell>
        <mxCell id="wj3mNSZLk9jR2dblGGt5-45" value="&lt;span style=&quot;color: rgb(0, 0, 0); font-family: Helvetica; font-size: 12px; font-style: normal; font-variant-ligatures: normal; font-variant-caps: normal; font-weight: 400; letter-spacing: normal; orphans: 2; text-align: center; text-indent: 0px; text-transform: none; widows: 2; word-spacing: 0px; -webkit-text-stroke-width: 0px; white-space: normal; background-color: rgb(236, 236, 236); text-decoration-thickness: initial; text-decoration-style: initial; text-decoration-color: initial; display: inline !important; float: none;&quot;&gt;is a&lt;/span&gt;" style="text;whiteSpace=wrap;html=1;" parent="1" vertex="1">
          <mxGeometry x="-2160" y="1878" width="50" height="40" as="geometry" />
        </mxCell>
        <mxCell id="wj3mNSZLk9jR2dblGGt5-46" value="" style="endArrow=classic;html=1;rounded=0;exitX=0.403;exitY=0.023;exitDx=0;exitDy=0;exitPerimeter=0;strokeColor=#B5739D;" parent="1" source="0uM6pgvkFFP_AmX8pPwE-71" edge="1">
          <mxGeometry width="50" height="50" relative="1" as="geometry">
            <mxPoint x="-1820" y="1778" as="sourcePoint" />
            <mxPoint x="-1480" y="1648" as="targetPoint" />
          </mxGeometry>
        </mxCell>
        <mxCell id="wj3mNSZLk9jR2dblGGt5-47" value="" style="endArrow=classic;html=1;rounded=0;exitX=0.638;exitY=-0.001;exitDx=0;exitDy=0;exitPerimeter=0;strokeColor=#B5739D;" parent="1" source="0uM6pgvkFFP_AmX8pPwE-71" edge="1">
          <mxGeometry width="50" height="50" relative="1" as="geometry">
            <mxPoint x="-1820" y="1778" as="sourcePoint" />
            <mxPoint x="-806.2353515625" y="1648" as="targetPoint" />
          </mxGeometry>
        </mxCell>
        <mxCell id="wj3mNSZLk9jR2dblGGt5-48" value="&lt;span style=&quot;color: rgb(0, 0, 0); font-family: Helvetica; font-size: 12px; font-style: normal; font-variant-ligatures: normal; font-variant-caps: normal; font-weight: 400; letter-spacing: normal; orphans: 2; text-align: center; text-indent: 0px; text-transform: none; widows: 2; word-spacing: 0px; -webkit-text-stroke-width: 0px; white-space: normal; background-color: rgb(236, 236, 236); text-decoration-thickness: initial; text-decoration-style: initial; text-decoration-color: initial; display: inline !important; float: none;&quot;&gt;is a&lt;/span&gt;" style="text;whiteSpace=wrap;html=1;" parent="1" vertex="1">
          <mxGeometry x="-2050" y="1858" width="50" height="40" as="geometry" />
        </mxCell>
        <mxCell id="wj3mNSZLk9jR2dblGGt5-49" value="&lt;span style=&quot;color: rgb(0, 0, 0); font-family: Helvetica; font-size: 12px; font-style: normal; font-variant-ligatures: normal; font-variant-caps: normal; font-weight: 400; letter-spacing: normal; orphans: 2; text-align: center; text-indent: 0px; text-transform: none; widows: 2; word-spacing: 0px; -webkit-text-stroke-width: 0px; white-space: normal; background-color: rgb(236, 236, 236); text-decoration-thickness: initial; text-decoration-style: initial; text-decoration-color: initial; display: inline !important; float: none;&quot;&gt;is a&lt;/span&gt;" style="text;whiteSpace=wrap;html=1;" parent="1" vertex="1">
          <mxGeometry x="-1915" y="1878" width="50" height="40" as="geometry" />
        </mxCell>
        <mxCell id="wj3mNSZLk9jR2dblGGt5-50" value="" style="endArrow=classic;html=1;rounded=0;exitX=0.4;exitY=0;exitDx=0;exitDy=0;exitPerimeter=0;entryX=0.5;entryY=1;entryDx=0;entryDy=0;strokeColor=#26E3FF;" parent="1" source="0uM6pgvkFFP_AmX8pPwE-72" target="0uM6pgvkFFP_AmX8pPwE-16" edge="1">
          <mxGeometry width="50" height="50" relative="1" as="geometry">
            <mxPoint x="-1530" y="1778" as="sourcePoint" />
            <mxPoint x="-1480" y="1728" as="targetPoint" />
          </mxGeometry>
        </mxCell>
        <mxCell id="wj3mNSZLk9jR2dblGGt5-51" value="" style="endArrow=classic;html=1;rounded=0;exitX=0.552;exitY=0.018;exitDx=0;exitDy=0;exitPerimeter=0;strokeColor=#26E3FF;" parent="1" source="0uM6pgvkFFP_AmX8pPwE-72" edge="1">
          <mxGeometry width="50" height="50" relative="1" as="geometry">
            <mxPoint x="-1530" y="1778" as="sourcePoint" />
            <mxPoint x="-558.1178193933823" y="1648" as="targetPoint" />
          </mxGeometry>
        </mxCell>
        <mxCell id="wj3mNSZLk9jR2dblGGt5-52" value="&lt;span style=&quot;color: rgb(0, 0, 0); font-family: Helvetica; font-size: 12px; font-style: normal; font-variant-ligatures: normal; font-variant-caps: normal; font-weight: 400; letter-spacing: normal; orphans: 2; text-align: center; text-indent: 0px; text-transform: none; widows: 2; word-spacing: 0px; -webkit-text-stroke-width: 0px; white-space: normal; background-color: rgb(236, 236, 236); text-decoration-thickness: initial; text-decoration-style: initial; text-decoration-color: initial; display: inline !important; float: none;&quot;&gt;is a&lt;/span&gt;" style="text;whiteSpace=wrap;html=1;" parent="1" vertex="1">
          <mxGeometry x="-1810" y="1858" width="50" height="40" as="geometry" />
        </mxCell>
        <mxCell id="wj3mNSZLk9jR2dblGGt5-53" value="&lt;span style=&quot;color: rgb(0, 0, 0); font-family: Helvetica; font-size: 12px; font-style: normal; font-variant-ligatures: normal; font-variant-caps: normal; font-weight: 400; letter-spacing: normal; orphans: 2; text-align: center; text-indent: 0px; text-transform: none; widows: 2; word-spacing: 0px; -webkit-text-stroke-width: 0px; white-space: normal; background-color: rgb(236, 236, 236); text-decoration-thickness: initial; text-decoration-style: initial; text-decoration-color: initial; display: inline !important; float: none;&quot;&gt;is a&lt;/span&gt;" style="text;whiteSpace=wrap;html=1;" parent="1" vertex="1">
          <mxGeometry x="-1700" y="1848" width="50" height="40" as="geometry" />
        </mxCell>
        <mxCell id="wj3mNSZLk9jR2dblGGt5-54" value="" style="endArrow=classic;html=1;rounded=0;exitX=0.293;exitY=0.004;exitDx=0;exitDy=0;exitPerimeter=0;strokeColor=#FFCE9F;" parent="1" source="0uM6pgvkFFP_AmX8pPwE-73" edge="1">
          <mxGeometry width="50" height="50" relative="1" as="geometry">
            <mxPoint x="-1340" y="1778" as="sourcePoint" />
            <mxPoint x="-1450" y="1648" as="targetPoint" />
          </mxGeometry>
        </mxCell>
        <mxCell id="wj3mNSZLk9jR2dblGGt5-55" value="" style="endArrow=classic;html=1;rounded=0;exitX=0.391;exitY=-0.005;exitDx=0;exitDy=0;exitPerimeter=0;strokeColor=#FFCE9F;" parent="1" source="0uM6pgvkFFP_AmX8pPwE-73" edge="1">
          <mxGeometry width="50" height="50" relative="1" as="geometry">
            <mxPoint x="-1340" y="1778" as="sourcePoint" />
            <mxPoint x="-294.3528837316176" y="1648" as="targetPoint" />
          </mxGeometry>
        </mxCell>
        <mxCell id="wj3mNSZLk9jR2dblGGt5-56" value="&lt;span style=&quot;color: rgb(0, 0, 0); font-family: Helvetica; font-size: 12px; font-style: normal; font-variant-ligatures: normal; font-variant-caps: normal; font-weight: 400; letter-spacing: normal; orphans: 2; text-align: center; text-indent: 0px; text-transform: none; widows: 2; word-spacing: 0px; -webkit-text-stroke-width: 0px; white-space: normal; background-color: rgb(236, 236, 236); text-decoration-thickness: initial; text-decoration-style: initial; text-decoration-color: initial; display: inline !important; float: none;&quot;&gt;is a&lt;/span&gt;" style="text;whiteSpace=wrap;html=1;" parent="1" vertex="1">
          <mxGeometry x="-1510" y="1848" width="50" height="40" as="geometry" />
        </mxCell>
        <mxCell id="wj3mNSZLk9jR2dblGGt5-57" value="&lt;span style=&quot;color: rgb(0, 0, 0); font-family: Helvetica; font-size: 12px; font-style: normal; font-variant-ligatures: normal; font-variant-caps: normal; font-weight: 400; letter-spacing: normal; orphans: 2; text-align: center; text-indent: 0px; text-transform: none; widows: 2; word-spacing: 0px; -webkit-text-stroke-width: 0px; white-space: normal; background-color: rgb(236, 236, 236); text-decoration-thickness: initial; text-decoration-style: initial; text-decoration-color: initial; display: inline !important; float: none;&quot;&gt;is a&lt;/span&gt;" style="text;whiteSpace=wrap;html=1;" parent="1" vertex="1">
          <mxGeometry x="-1600" y="1858" width="50" height="40" as="geometry" />
        </mxCell>
        <mxCell id="wj3mNSZLk9jR2dblGGt5-58" value="" style="endArrow=classic;html=1;rounded=0;exitX=0.283;exitY=-0.015;exitDx=0;exitDy=0;exitPerimeter=0;strokeColor=#6600CC;" parent="1" source="0uM6pgvkFFP_AmX8pPwE-74" edge="1">
          <mxGeometry width="50" height="50" relative="1" as="geometry">
            <mxPoint x="-1410" y="1758" as="sourcePoint" />
            <mxPoint x="-1440" y="1648" as="targetPoint" />
          </mxGeometry>
        </mxCell>
        <mxCell id="wj3mNSZLk9jR2dblGGt5-59" value="" style="endArrow=classic;html=1;rounded=0;exitX=0.36;exitY=-0.011;exitDx=0;exitDy=0;exitPerimeter=0;strokeColor=#6600CC;" parent="1" source="0uM6pgvkFFP_AmX8pPwE-74" edge="1">
          <mxGeometry width="50" height="50" relative="1" as="geometry">
            <mxPoint x="-1410" y="1758" as="sourcePoint" />
            <mxPoint x="-58.54580965909091" y="1648" as="targetPoint" />
          </mxGeometry>
        </mxCell>
        <mxCell id="wj3mNSZLk9jR2dblGGt5-60" value="&lt;span style=&quot;color: rgb(0, 0, 0); font-family: Helvetica; font-size: 12px; font-style: normal; font-variant-ligatures: normal; font-variant-caps: normal; font-weight: 400; letter-spacing: normal; orphans: 2; text-align: center; text-indent: 0px; text-transform: none; widows: 2; word-spacing: 0px; -webkit-text-stroke-width: 0px; white-space: normal; background-color: rgb(236, 236, 236); text-decoration-thickness: initial; text-decoration-style: initial; text-decoration-color: initial; display: inline !important; float: none;&quot;&gt;is a&lt;/span&gt;" style="text;whiteSpace=wrap;html=1;" parent="1" vertex="1">
          <mxGeometry x="-1370" y="1858" width="50" height="40" as="geometry" />
        </mxCell>
        <mxCell id="wj3mNSZLk9jR2dblGGt5-61" value="&lt;span style=&quot;color: rgb(0, 0, 0); font-family: Helvetica; font-size: 12px; font-style: normal; font-variant-ligatures: normal; font-variant-caps: normal; font-weight: 400; letter-spacing: normal; orphans: 2; text-align: center; text-indent: 0px; text-transform: none; widows: 2; word-spacing: 0px; -webkit-text-stroke-width: 0px; white-space: normal; background-color: rgb(236, 236, 236); text-decoration-thickness: initial; text-decoration-style: initial; text-decoration-color: initial; display: inline !important; float: none;&quot;&gt;is a&lt;/span&gt;" style="text;whiteSpace=wrap;html=1;" parent="1" vertex="1">
          <mxGeometry x="-1300" y="1853" width="50" height="40" as="geometry" />
        </mxCell>
        <mxCell id="wj3mNSZLk9jR2dblGGt5-62" value="" style="endArrow=classic;html=1;rounded=0;exitX=0.374;exitY=-0.008;exitDx=0;exitDy=0;exitPerimeter=0;strokeColor=#15521E;" parent="1" source="0uM6pgvkFFP_AmX8pPwE-77" edge="1">
          <mxGeometry width="50" height="50" relative="1" as="geometry">
            <mxPoint x="-620" y="1888" as="sourcePoint" />
            <mxPoint x="-1420" y="1648" as="targetPoint" />
          </mxGeometry>
        </mxCell>
        <mxCell id="wj3mNSZLk9jR2dblGGt5-63" value="" style="endArrow=classic;html=1;rounded=0;exitX=0.472;exitY=-0.008;exitDx=0;exitDy=0;exitPerimeter=0;strokeColor=#15521E;" parent="1" source="0uM6pgvkFFP_AmX8pPwE-77" edge="1">
          <mxGeometry width="50" height="50" relative="1" as="geometry">
            <mxPoint x="-500" y="1708" as="sourcePoint" />
            <mxPoint x="191.45463423295453" y="1648" as="targetPoint" />
          </mxGeometry>
        </mxCell>
        <mxCell id="wj3mNSZLk9jR2dblGGt5-64" value="&lt;span style=&quot;color: rgb(0, 0, 0); font-family: Helvetica; font-size: 12px; font-style: normal; font-variant-ligatures: normal; font-variant-caps: normal; font-weight: 400; letter-spacing: normal; orphans: 2; text-align: center; text-indent: 0px; text-transform: none; widows: 2; word-spacing: 0px; -webkit-text-stroke-width: 0px; white-space: normal; background-color: rgb(236, 236, 236); text-decoration-thickness: initial; text-decoration-style: initial; text-decoration-color: initial; display: inline !important; float: none;&quot;&gt;is a&lt;/span&gt;" style="text;whiteSpace=wrap;html=1;" parent="1" vertex="1">
          <mxGeometry x="-630" y="1853" width="50" height="40" as="geometry" />
        </mxCell>
        <mxCell id="wj3mNSZLk9jR2dblGGt5-65" value="&lt;span style=&quot;color: rgb(0, 0, 0); font-family: Helvetica; font-size: 12px; font-style: normal; font-variant-ligatures: normal; font-variant-caps: normal; font-weight: 400; letter-spacing: normal; orphans: 2; text-align: center; text-indent: 0px; text-transform: none; widows: 2; word-spacing: 0px; -webkit-text-stroke-width: 0px; white-space: normal; background-color: rgb(236, 236, 236); text-decoration-thickness: initial; text-decoration-style: initial; text-decoration-color: initial; display: inline !important; float: none;&quot;&gt;is a&lt;/span&gt;" style="text;whiteSpace=wrap;html=1;" parent="1" vertex="1">
          <mxGeometry x="-576" y="1853" width="50" height="40" as="geometry" />
        </mxCell>
        <mxCell id="wj3mNSZLk9jR2dblGGt5-66" value="" style="endArrow=classic;html=1;rounded=0;exitX=0.399;exitY=-0.004;exitDx=0;exitDy=0;exitPerimeter=0;strokeColor=#6E88FF;" parent="1" source="0uM6pgvkFFP_AmX8pPwE-78" edge="1">
          <mxGeometry width="50" height="50" relative="1" as="geometry">
            <mxPoint x="-300" y="1798" as="sourcePoint" />
            <mxPoint x="-1390.7273171164773" y="1648" as="targetPoint" />
          </mxGeometry>
        </mxCell>
        <mxCell id="wj3mNSZLk9jR2dblGGt5-67" value="" style="endArrow=classic;html=1;rounded=0;exitX=0.465;exitY=0.003;exitDx=0;exitDy=0;exitPerimeter=0;" parent="1" source="0uM6pgvkFFP_AmX8pPwE-78" edge="1">
          <mxGeometry width="50" height="50" relative="1" as="geometry">
            <mxPoint x="-400" y="1708" as="sourcePoint" />
            <mxPoint x="450" y="1648" as="targetPoint" />
          </mxGeometry>
        </mxCell>
        <mxCell id="wj3mNSZLk9jR2dblGGt5-68" value="&lt;span style=&quot;color: rgb(0, 0, 0); font-family: Helvetica; font-size: 12px; font-style: normal; font-variant-ligatures: normal; font-variant-caps: normal; font-weight: 400; letter-spacing: normal; orphans: 2; text-align: center; text-indent: 0px; text-transform: none; widows: 2; word-spacing: 0px; -webkit-text-stroke-width: 0px; white-space: normal; background-color: rgb(236, 236, 236); text-decoration-thickness: initial; text-decoration-style: initial; text-decoration-color: initial; display: inline !important; float: none;&quot;&gt;is a&lt;/span&gt;" style="text;whiteSpace=wrap;html=1;" parent="1" vertex="1">
          <mxGeometry x="-390" y="1848" width="50" height="40" as="geometry" />
        </mxCell>
        <mxCell id="wj3mNSZLk9jR2dblGGt5-69" value="&lt;span style=&quot;color: rgb(0, 0, 0); font-family: Helvetica; font-size: 12px; font-style: normal; font-variant-ligatures: normal; font-variant-caps: normal; font-weight: 400; letter-spacing: normal; orphans: 2; text-align: center; text-indent: 0px; text-transform: none; widows: 2; word-spacing: 0px; -webkit-text-stroke-width: 0px; white-space: normal; background-color: rgb(236, 236, 236); text-decoration-thickness: initial; text-decoration-style: initial; text-decoration-color: initial; display: inline !important; float: none;&quot;&gt;is a&lt;/span&gt;" style="text;whiteSpace=wrap;html=1;" parent="1" vertex="1">
          <mxGeometry x="-330" y="1848" width="50" height="40" as="geometry" />
        </mxCell>
        <mxCell id="wj3mNSZLk9jR2dblGGt5-70" value="" style="endArrow=classic;html=1;rounded=0;exitX=0.345;exitY=0.009;exitDx=0;exitDy=0;exitPerimeter=0;" parent="1" source="0uM6pgvkFFP_AmX8pPwE-79" edge="1">
          <mxGeometry width="50" height="50" relative="1" as="geometry">
            <mxPoint x="-210" y="1708" as="sourcePoint" />
            <mxPoint x="-1262.2855050223213" y="1638" as="targetPoint" />
          </mxGeometry>
        </mxCell>
        <mxCell id="wj3mNSZLk9jR2dblGGt5-71" value="" style="endArrow=classic;html=1;rounded=0;" parent="1" edge="1">
          <mxGeometry width="50" height="50" relative="1" as="geometry">
            <mxPoint x="-130" y="1878" as="sourcePoint" />
            <mxPoint x="210" y="1648" as="targetPoint" />
          </mxGeometry>
        </mxCell>
        <mxCell id="wj3mNSZLk9jR2dblGGt5-72" value="&lt;span style=&quot;color: rgb(0, 0, 0); font-family: Helvetica; font-size: 12px; font-style: normal; font-variant-ligatures: normal; font-variant-caps: normal; font-weight: 400; letter-spacing: normal; orphans: 2; text-align: center; text-indent: 0px; text-transform: none; widows: 2; word-spacing: 0px; -webkit-text-stroke-width: 0px; white-space: normal; background-color: rgb(236, 236, 236); text-decoration-thickness: initial; text-decoration-style: initial; text-decoration-color: initial; display: inline !important; float: none;&quot;&gt;is a&lt;/span&gt;" style="text;whiteSpace=wrap;html=1;" parent="1" vertex="1">
          <mxGeometry x="-190" y="1848" width="50" height="40" as="geometry" />
        </mxCell>
        <mxCell id="wj3mNSZLk9jR2dblGGt5-73" value="&lt;span style=&quot;color: rgb(0, 0, 0); font-family: Helvetica; font-size: 12px; font-style: normal; font-variant-ligatures: normal; font-variant-caps: normal; font-weight: 400; letter-spacing: normal; orphans: 2; text-align: center; text-indent: 0px; text-transform: none; widows: 2; word-spacing: 0px; -webkit-text-stroke-width: 0px; white-space: normal; background-color: rgb(236, 236, 236); text-decoration-thickness: initial; text-decoration-style: initial; text-decoration-color: initial; display: inline !important; float: none;&quot;&gt;is a&lt;/span&gt;" style="text;whiteSpace=wrap;html=1;" parent="1" vertex="1">
          <mxGeometry x="-140" y="1838" width="50" height="40" as="geometry" />
        </mxCell>
        <mxCell id="wj3mNSZLk9jR2dblGGt5-76" value="" style="endArrow=classic;html=1;rounded=0;exitX=0.351;exitY=-0.002;exitDx=0;exitDy=0;exitPerimeter=0;entryX=0.75;entryY=1;entryDx=0;entryDy=0;strokeColor=#FF0000;" parent="1" source="0uM6pgvkFFP_AmX8pPwE-80" target="0uM6pgvkFFP_AmX8pPwE-17" edge="1">
          <mxGeometry width="50" height="50" relative="1" as="geometry">
            <mxPoint x="290" y="1728" as="sourcePoint" />
            <mxPoint x="340" y="1678" as="targetPoint" />
          </mxGeometry>
        </mxCell>
        <mxCell id="wj3mNSZLk9jR2dblGGt5-77" value="" style="endArrow=classic;html=1;rounded=0;exitX=0.395;exitY=0;exitDx=0;exitDy=0;exitPerimeter=0;entryX=0.5;entryY=1;entryDx=0;entryDy=0;strokeColor=#FF0000;" parent="1" source="0uM6pgvkFFP_AmX8pPwE-80" target="0uM6pgvkFFP_AmX8pPwE-24" edge="1">
          <mxGeometry width="50" height="50" relative="1" as="geometry">
            <mxPoint x="60" y="1728" as="sourcePoint" />
            <mxPoint x="110" y="1678" as="targetPoint" />
          </mxGeometry>
        </mxCell>
        <mxCell id="wj3mNSZLk9jR2dblGGt5-78" value="&lt;span style=&quot;color: rgb(0, 0, 0); font-family: Helvetica; font-size: 12px; font-style: normal; font-variant-ligatures: normal; font-variant-caps: normal; font-weight: 400; letter-spacing: normal; orphans: 2; text-align: center; text-indent: 0px; text-transform: none; widows: 2; word-spacing: 0px; -webkit-text-stroke-width: 0px; white-space: normal; background-color: rgb(236, 236, 236); text-decoration-thickness: initial; text-decoration-style: initial; text-decoration-color: initial; display: inline !important; float: none;&quot;&gt;is a&lt;/span&gt;" style="text;whiteSpace=wrap;html=1;" parent="1" vertex="1">
          <mxGeometry x="46" y="1838" width="50" height="40" as="geometry" />
        </mxCell>
        <mxCell id="wj3mNSZLk9jR2dblGGt5-79" value="&lt;span style=&quot;color: rgb(0, 0, 0); font-family: Helvetica; font-size: 12px; font-style: normal; font-variant-ligatures: normal; font-variant-caps: normal; font-weight: 400; letter-spacing: normal; orphans: 2; text-align: center; text-indent: 0px; text-transform: none; widows: 2; word-spacing: 0px; -webkit-text-stroke-width: 0px; white-space: normal; background-color: rgb(236, 236, 236); text-decoration-thickness: initial; text-decoration-style: initial; text-decoration-color: initial; display: inline !important; float: none;&quot;&gt;is a&lt;/span&gt;" style="text;whiteSpace=wrap;html=1;" parent="1" vertex="1">
          <mxGeometry x="176" y="1853" width="50" height="40" as="geometry" />
        </mxCell>
        <mxCell id="wj3mNSZLk9jR2dblGGt5-81" value="" style="endArrow=classic;html=1;rounded=0;exitX=0.31;exitY=0;exitDx=0;exitDy=0;exitPerimeter=0;entryX=0.5;entryY=1;entryDx=0;entryDy=0;strokeColor=#0066CC;" parent="1" source="0uM6pgvkFFP_AmX8pPwE-81" target="0uM6pgvkFFP_AmX8pPwE-18" edge="1">
          <mxGeometry width="50" height="50" relative="1" as="geometry">
            <mxPoint x="60" y="1728" as="sourcePoint" />
            <mxPoint x="110" y="1678" as="targetPoint" />
          </mxGeometry>
        </mxCell>
        <mxCell id="wj3mNSZLk9jR2dblGGt5-82" value="" style="endArrow=classic;html=1;rounded=0;exitX=0.425;exitY=-0.008;exitDx=0;exitDy=0;exitPerimeter=0;entryX=0.5;entryY=1;entryDx=0;entryDy=0;strokeColor=#0066CC;" parent="1" source="0uM6pgvkFFP_AmX8pPwE-81" target="0uM6pgvkFFP_AmX8pPwE-23" edge="1">
          <mxGeometry width="50" height="50" relative="1" as="geometry">
            <mxPoint x="510" y="1728" as="sourcePoint" />
            <mxPoint x="560" y="1678" as="targetPoint" />
          </mxGeometry>
        </mxCell>
        <mxCell id="wj3mNSZLk9jR2dblGGt5-83" value="&lt;span style=&quot;color: rgb(0, 0, 0); font-family: Helvetica; font-size: 12px; font-style: normal; font-variant-ligatures: normal; font-variant-caps: normal; font-weight: 400; letter-spacing: normal; orphans: 2; text-align: center; text-indent: 0px; text-transform: none; widows: 2; word-spacing: 0px; -webkit-text-stroke-width: 0px; white-space: normal; background-color: rgb(236, 236, 236); text-decoration-thickness: initial; text-decoration-style: initial; text-decoration-color: initial; display: inline !important; float: none;&quot;&gt;is a&lt;/span&gt;" style="text;whiteSpace=wrap;html=1;" parent="1" vertex="1">
          <mxGeometry x="280" y="1843" width="50" height="40" as="geometry" />
        </mxCell>
        <mxCell id="wj3mNSZLk9jR2dblGGt5-84" value="&lt;span style=&quot;color: rgb(0, 0, 0); font-family: Helvetica; font-size: 12px; font-style: normal; font-variant-ligatures: normal; font-variant-caps: normal; font-weight: 400; letter-spacing: normal; orphans: 2; text-align: center; text-indent: 0px; text-transform: none; widows: 2; word-spacing: 0px; -webkit-text-stroke-width: 0px; white-space: normal; background-color: rgb(236, 236, 236); text-decoration-thickness: initial; text-decoration-style: initial; text-decoration-color: initial; display: inline !important; float: none;&quot;&gt;is a&lt;/span&gt;" style="text;whiteSpace=wrap;html=1;" parent="1" vertex="1">
          <mxGeometry x="329" y="1848" width="50" height="40" as="geometry" />
        </mxCell>
        <mxCell id="wj3mNSZLk9jR2dblGGt5-85" value="" style="endArrow=classic;html=1;rounded=0;exitX=0.25;exitY=0;exitDx=0;exitDy=0;entryX=0.75;entryY=1;entryDx=0;entryDy=0;strokeColor=#336600;" parent="1" source="0uM6pgvkFFP_AmX8pPwE-82" target="0uM6pgvkFFP_AmX8pPwE-18" edge="1">
          <mxGeometry width="50" height="50" relative="1" as="geometry">
            <mxPoint x="580" y="1878" as="sourcePoint" />
            <mxPoint x="560" y="1678" as="targetPoint" />
          </mxGeometry>
        </mxCell>
        <mxCell id="wj3mNSZLk9jR2dblGGt5-86" value="" style="endArrow=classic;html=1;rounded=0;exitX=0.25;exitY=0;exitDx=0;exitDy=0;entryX=0.5;entryY=1;entryDx=0;entryDy=0;strokeColor=#336600;" parent="1" source="0uM6pgvkFFP_AmX8pPwE-82" target="0uM6pgvkFFP_AmX8pPwE-24" edge="1">
          <mxGeometry width="50" height="50" relative="1" as="geometry">
            <mxPoint x="730" y="1728" as="sourcePoint" />
            <mxPoint x="780" y="1678" as="targetPoint" />
          </mxGeometry>
        </mxCell>
        <mxCell id="wj3mNSZLk9jR2dblGGt5-87" value="&lt;span style=&quot;color: rgb(0, 0, 0); font-family: Helvetica; font-size: 12px; font-style: normal; font-variant-ligatures: normal; font-variant-caps: normal; font-weight: 400; letter-spacing: normal; orphans: 2; text-align: center; text-indent: 0px; text-transform: none; widows: 2; word-spacing: 0px; -webkit-text-stroke-width: 0px; white-space: normal; background-color: rgb(236, 236, 236); text-decoration-thickness: initial; text-decoration-style: initial; text-decoration-color: initial; display: inline !important; float: none;&quot;&gt;is a&lt;/span&gt;" style="text;whiteSpace=wrap;html=1;" parent="1" vertex="1">
          <mxGeometry x="510" y="1848" width="50" height="40" as="geometry" />
        </mxCell>
        <mxCell id="wj3mNSZLk9jR2dblGGt5-88" value="&lt;span style=&quot;color: rgb(0, 0, 0); font-family: Helvetica; font-size: 12px; font-style: normal; font-variant-ligatures: normal; font-variant-caps: normal; font-weight: 400; letter-spacing: normal; orphans: 2; text-align: center; text-indent: 0px; text-transform: none; widows: 2; word-spacing: 0px; -webkit-text-stroke-width: 0px; white-space: normal; background-color: rgb(236, 236, 236); text-decoration-thickness: initial; text-decoration-style: initial; text-decoration-color: initial; display: inline !important; float: none;&quot;&gt;is a&lt;/span&gt;" style="text;whiteSpace=wrap;html=1;" parent="1" vertex="1">
          <mxGeometry x="524" y="1818" width="50" height="40" as="geometry" />
        </mxCell>
        <mxCell id="wj3mNSZLk9jR2dblGGt5-89" value="" style="endArrow=classic;html=1;rounded=0;exitX=0.25;exitY=0;exitDx=0;exitDy=0;entryX=0.5;entryY=1;entryDx=0;entryDy=0;strokeColor=#A680B8;" parent="1" source="0uM6pgvkFFP_AmX8pPwE-83" target="0uM6pgvkFFP_AmX8pPwE-19" edge="1">
          <mxGeometry width="50" height="50" relative="1" as="geometry">
            <mxPoint x="730" y="1728" as="sourcePoint" />
            <mxPoint x="780" y="1678" as="targetPoint" />
          </mxGeometry>
        </mxCell>
        <mxCell id="wj3mNSZLk9jR2dblGGt5-90" value="" style="endArrow=classic;html=1;rounded=0;exitX=0.385;exitY=-0.002;exitDx=0;exitDy=0;exitPerimeter=0;strokeColor=#A680B8;" parent="1" source="0uM6pgvkFFP_AmX8pPwE-83" edge="1">
          <mxGeometry width="50" height="50" relative="1" as="geometry">
            <mxPoint x="560" y="1728" as="sourcePoint" />
            <mxPoint x="240" y="1648" as="targetPoint" />
          </mxGeometry>
        </mxCell>
        <mxCell id="wj3mNSZLk9jR2dblGGt5-91" value="&lt;span style=&quot;color: rgb(0, 0, 0); font-family: Helvetica; font-size: 12px; font-style: normal; font-variant-ligatures: normal; font-variant-caps: normal; font-weight: 400; letter-spacing: normal; orphans: 2; text-align: center; text-indent: 0px; text-transform: none; widows: 2; word-spacing: 0px; -webkit-text-stroke-width: 0px; white-space: normal; background-color: rgb(236, 236, 236); text-decoration-thickness: initial; text-decoration-style: initial; text-decoration-color: initial; display: inline !important; float: none;&quot;&gt;is a&lt;/span&gt;" style="text;whiteSpace=wrap;html=1;" parent="1" vertex="1">
          <mxGeometry x="700" y="1843" width="50" height="40" as="geometry" />
        </mxCell>
        <mxCell id="wj3mNSZLk9jR2dblGGt5-92" value="&lt;span style=&quot;color: rgb(0, 0, 0); font-family: Helvetica; font-size: 12px; font-style: normal; font-variant-ligatures: normal; font-variant-caps: normal; font-weight: 400; letter-spacing: normal; orphans: 2; text-align: center; text-indent: 0px; text-transform: none; widows: 2; word-spacing: 0px; -webkit-text-stroke-width: 0px; white-space: normal; background-color: rgb(236, 236, 236); text-decoration-thickness: initial; text-decoration-style: initial; text-decoration-color: initial; display: inline !important; float: none;&quot;&gt;is a&lt;/span&gt;" style="text;whiteSpace=wrap;html=1;" parent="1" vertex="1">
          <mxGeometry x="780" y="1838" width="50" height="40" as="geometry" />
        </mxCell>
        <mxCell id="wj3mNSZLk9jR2dblGGt5-93" value="" style="endArrow=classic;html=1;rounded=0;exitX=0.298;exitY=-0.014;exitDx=0;exitDy=0;exitPerimeter=0;strokeColor=#FFD966;" parent="1" source="0uM6pgvkFFP_AmX8pPwE-84" edge="1">
          <mxGeometry width="50" height="50" relative="1" as="geometry">
            <mxPoint x="1020" y="1868" as="sourcePoint" />
            <mxPoint x="-790" y="1648" as="targetPoint" />
          </mxGeometry>
        </mxCell>
        <mxCell id="wj3mNSZLk9jR2dblGGt5-94" value="" style="endArrow=classic;html=1;rounded=0;exitX=0.389;exitY=-0.008;exitDx=0;exitDy=0;exitPerimeter=0;entryX=0.5;entryY=1;entryDx=0;entryDy=0;strokeColor=#FFD966;" parent="1" source="0uM6pgvkFFP_AmX8pPwE-84" target="0uM6pgvkFFP_AmX8pPwE-24" edge="1">
          <mxGeometry width="50" height="50" relative="1" as="geometry">
            <mxPoint x="560" y="1728" as="sourcePoint" />
            <mxPoint x="610" y="1678" as="targetPoint" />
          </mxGeometry>
        </mxCell>
        <mxCell id="wj3mNSZLk9jR2dblGGt5-95" value="&lt;span style=&quot;color: rgb(0, 0, 0); font-family: Helvetica; font-size: 12px; font-style: normal; font-variant-ligatures: normal; font-variant-caps: normal; font-weight: 400; letter-spacing: normal; orphans: 2; text-align: center; text-indent: 0px; text-transform: none; widows: 2; word-spacing: 0px; -webkit-text-stroke-width: 0px; white-space: normal; background-color: rgb(236, 236, 236); text-decoration-thickness: initial; text-decoration-style: initial; text-decoration-color: initial; display: inline !important; float: none;&quot;&gt;is a&lt;/span&gt;" style="text;whiteSpace=wrap;html=1;" parent="1" vertex="1">
          <mxGeometry x="860" y="1828" width="50" height="40" as="geometry" />
        </mxCell>
        <mxCell id="wj3mNSZLk9jR2dblGGt5-96" value="&lt;span style=&quot;color: rgb(0, 0, 0); font-family: Helvetica; font-size: 12px; font-style: normal; font-variant-ligatures: normal; font-variant-caps: normal; font-weight: 400; letter-spacing: normal; orphans: 2; text-align: center; text-indent: 0px; text-transform: none; widows: 2; word-spacing: 0px; -webkit-text-stroke-width: 0px; white-space: normal; background-color: rgb(236, 236, 236); text-decoration-thickness: initial; text-decoration-style: initial; text-decoration-color: initial; display: inline !important; float: none;&quot;&gt;is a&lt;/span&gt;" style="text;whiteSpace=wrap;html=1;" parent="1" vertex="1">
          <mxGeometry x="920" y="1828" width="50" height="40" as="geometry" />
        </mxCell>
        <mxCell id="wj3mNSZLk9jR2dblGGt5-97" value="" style="endArrow=classic;html=1;rounded=0;exitX=0.25;exitY=0;exitDx=0;exitDy=0;" parent="1" source="0uM6pgvkFFP_AmX8pPwE-85" edge="1">
          <mxGeometry width="50" height="50" relative="1" as="geometry">
            <mxPoint x="1120" y="1728" as="sourcePoint" />
            <mxPoint x="-550" y="1648" as="targetPoint" />
          </mxGeometry>
        </mxCell>
        <mxCell id="wj3mNSZLk9jR2dblGGt5-98" value="" style="endArrow=classic;html=1;rounded=0;exitX=0.411;exitY=-0.002;exitDx=0;exitDy=0;exitPerimeter=0;entryX=0.75;entryY=1;entryDx=0;entryDy=0;" parent="1" source="0uM6pgvkFFP_AmX8pPwE-85" target="0uM6pgvkFFP_AmX8pPwE-23" edge="1">
          <mxGeometry width="50" height="50" relative="1" as="geometry">
            <mxPoint x="1020" y="1728" as="sourcePoint" />
            <mxPoint x="1070" y="1678" as="targetPoint" />
          </mxGeometry>
        </mxCell>
        <mxCell id="wj3mNSZLk9jR2dblGGt5-99" value="&lt;span style=&quot;color: rgb(0, 0, 0); font-family: Helvetica; font-size: 12px; font-style: normal; font-variant-ligatures: normal; font-variant-caps: normal; font-weight: 400; letter-spacing: normal; orphans: 2; text-align: center; text-indent: 0px; text-transform: none; widows: 2; word-spacing: 0px; -webkit-text-stroke-width: 0px; white-space: normal; background-color: rgb(236, 236, 236); text-decoration-thickness: initial; text-decoration-style: initial; text-decoration-color: initial; display: inline !important; float: none;&quot;&gt;is a&lt;/span&gt;" style="text;whiteSpace=wrap;html=1;" parent="1" vertex="1">
          <mxGeometry x="1050" y="1828" width="50" height="40" as="geometry" />
        </mxCell>
        <mxCell id="wj3mNSZLk9jR2dblGGt5-100" value="&lt;span style=&quot;color: rgb(0, 0, 0); font-family: Helvetica; font-size: 12px; font-style: normal; font-variant-ligatures: normal; font-variant-caps: normal; font-weight: 400; letter-spacing: normal; orphans: 2; text-align: center; text-indent: 0px; text-transform: none; widows: 2; word-spacing: 0px; -webkit-text-stroke-width: 0px; white-space: normal; background-color: rgb(236, 236, 236); text-decoration-thickness: initial; text-decoration-style: initial; text-decoration-color: initial; display: inline !important; float: none;&quot;&gt;is a&lt;/span&gt;" style="text;whiteSpace=wrap;html=1;" parent="1" vertex="1">
          <mxGeometry x="1180" y="1828" width="50" height="40" as="geometry" />
        </mxCell>
        <mxCell id="wj3mNSZLk9jR2dblGGt5-101" value="" style="endArrow=classic;html=1;rounded=0;exitX=0.312;exitY=-0.014;exitDx=0;exitDy=0;exitPerimeter=0;entryX=0.75;entryY=1;entryDx=0;entryDy=0;strokeColor=#009999;" parent="1" source="0uM6pgvkFFP_AmX8pPwE-86" target="0uM6pgvkFFP_AmX8pPwE-20" edge="1">
          <mxGeometry width="50" height="50" relative="1" as="geometry">
            <mxPoint x="1280" y="1728" as="sourcePoint" />
            <mxPoint x="1030" y="1648" as="targetPoint" />
          </mxGeometry>
        </mxCell>
        <mxCell id="wj3mNSZLk9jR2dblGGt5-102" value="" style="endArrow=classic;html=1;rounded=0;exitX=0.346;exitY=-0.008;exitDx=0;exitDy=0;exitPerimeter=0;entryX=0.75;entryY=1;entryDx=0;entryDy=0;strokeColor=#009999;" parent="1" source="0uM6pgvkFFP_AmX8pPwE-86" target="0uM6pgvkFFP_AmX8pPwE-24" edge="1">
          <mxGeometry width="50" height="50" relative="1" as="geometry">
            <mxPoint x="1210" y="1728" as="sourcePoint" />
            <mxPoint x="1260" y="1678" as="targetPoint" />
          </mxGeometry>
        </mxCell>
        <mxCell id="wj3mNSZLk9jR2dblGGt5-103" value="is a&amp;nbsp;" style="text;html=1;align=center;verticalAlign=middle;whiteSpace=wrap;rounded=0;" parent="1" vertex="1">
          <mxGeometry x="1240" y="1828" width="60" height="30" as="geometry" />
        </mxCell>
        <mxCell id="wj3mNSZLk9jR2dblGGt5-104" value="&lt;span style=&quot;color: rgb(0, 0, 0); font-family: Helvetica; font-size: 12px; font-style: normal; font-variant-ligatures: normal; font-variant-caps: normal; font-weight: 400; letter-spacing: normal; orphans: 2; text-align: center; text-indent: 0px; text-transform: none; widows: 2; word-spacing: 0px; -webkit-text-stroke-width: 0px; white-space: normal; background-color: rgb(236, 236, 236); text-decoration-thickness: initial; text-decoration-style: initial; text-decoration-color: initial; display: inline !important; float: none;&quot;&gt;is a&amp;nbsp;&lt;/span&gt;" style="text;whiteSpace=wrap;html=1;" parent="1" vertex="1">
          <mxGeometry x="1330" y="1813" width="60" height="40" as="geometry" />
        </mxCell>
        <mxCell id="wj3mNSZLk9jR2dblGGt5-105" value="" style="endArrow=classic;html=1;rounded=0;exitX=0.386;exitY=-0.002;exitDx=0;exitDy=0;exitPerimeter=0;entryX=0.5;entryY=1;entryDx=0;entryDy=0;" parent="1" source="0uM6pgvkFFP_AmX8pPwE-89" target="0uM6pgvkFFP_AmX8pPwE-21" edge="1">
          <mxGeometry width="50" height="50" relative="1" as="geometry">
            <mxPoint x="2010" y="1728" as="sourcePoint" />
            <mxPoint x="2060" y="1678" as="targetPoint" />
          </mxGeometry>
        </mxCell>
        <mxCell id="wj3mNSZLk9jR2dblGGt5-106" value="" style="endArrow=classic;html=1;rounded=0;exitX=0.398;exitY=0.021;exitDx=0;exitDy=0;exitPerimeter=0;entryX=0.5;entryY=1;entryDx=0;entryDy=0;" parent="1" source="0uM6pgvkFFP_AmX8pPwE-89" target="0uM6pgvkFFP_AmX8pPwE-23" edge="1">
          <mxGeometry width="50" height="50" relative="1" as="geometry">
            <mxPoint x="1430" y="1728" as="sourcePoint" />
            <mxPoint x="1480" y="1678" as="targetPoint" />
          </mxGeometry>
        </mxCell>
        <mxCell id="wj3mNSZLk9jR2dblGGt5-107" value="&lt;span style=&quot;color: rgb(0, 0, 0); font-family: Helvetica; font-size: 12px; font-style: normal; font-variant-ligatures: normal; font-variant-caps: normal; font-weight: 400; letter-spacing: normal; orphans: 2; text-align: center; text-indent: 0px; text-transform: none; widows: 2; word-spacing: 0px; -webkit-text-stroke-width: 0px; white-space: normal; background-color: rgb(236, 236, 236); text-decoration-thickness: initial; text-decoration-style: initial; text-decoration-color: initial; display: inline !important; float: none;&quot;&gt;is a&amp;nbsp;&lt;/span&gt;" style="text;whiteSpace=wrap;html=1;" parent="1" vertex="1">
          <mxGeometry x="1650" y="1828" width="60" height="40" as="geometry" />
        </mxCell>
        <mxCell id="wj3mNSZLk9jR2dblGGt5-108" value="&lt;span style=&quot;color: rgb(0, 0, 0); font-family: Helvetica; font-size: 12px; font-style: normal; font-variant-ligatures: normal; font-variant-caps: normal; font-weight: 400; letter-spacing: normal; orphans: 2; text-align: center; text-indent: 0px; text-transform: none; widows: 2; word-spacing: 0px; -webkit-text-stroke-width: 0px; white-space: normal; background-color: rgb(236, 236, 236); text-decoration-thickness: initial; text-decoration-style: initial; text-decoration-color: initial; display: inline !important; float: none;&quot;&gt;is a&amp;nbsp;&lt;/span&gt;" style="text;whiteSpace=wrap;html=1;" parent="1" vertex="1">
          <mxGeometry x="1660" y="1883" width="60" height="40" as="geometry" />
        </mxCell>
        <mxCell id="wj3mNSZLk9jR2dblGGt5-109" value="" style="endArrow=classic;html=1;rounded=0;exitX=0.389;exitY=0.015;exitDx=0;exitDy=0;exitPerimeter=0;entryX=0.75;entryY=1;entryDx=0;entryDy=0;strokeColor=#00FF00;" parent="1" source="0uM6pgvkFFP_AmX8pPwE-90" target="0uM6pgvkFFP_AmX8pPwE-21" edge="1">
          <mxGeometry width="50" height="50" relative="1" as="geometry">
            <mxPoint x="1810" y="1728" as="sourcePoint" />
            <mxPoint x="1860" y="1678" as="targetPoint" />
          </mxGeometry>
        </mxCell>
        <mxCell id="wj3mNSZLk9jR2dblGGt5-110" value="" style="endArrow=classic;html=1;rounded=0;strokeColor=#00FF00;" parent="1" edge="1">
          <mxGeometry width="50" height="50" relative="1" as="geometry">
            <mxPoint x="2010" y="1888" as="sourcePoint" />
            <mxPoint x="568.857421875" y="1638" as="targetPoint" />
          </mxGeometry>
        </mxCell>
        <mxCell id="wj3mNSZLk9jR2dblGGt5-111" value="&lt;span style=&quot;color: rgb(0, 0, 0); font-family: Helvetica; font-size: 12px; font-style: normal; font-variant-ligatures: normal; font-variant-caps: normal; font-weight: 400; letter-spacing: normal; orphans: 2; text-align: center; text-indent: 0px; text-transform: none; widows: 2; word-spacing: 0px; -webkit-text-stroke-width: 0px; white-space: normal; background-color: rgb(236, 236, 236); text-decoration-thickness: initial; text-decoration-style: initial; text-decoration-color: initial; display: inline !important; float: none;&quot;&gt;is a&amp;nbsp;&lt;/span&gt;" style="text;whiteSpace=wrap;html=1;" parent="1" vertex="1">
          <mxGeometry x="1970" y="1848" width="60" height="40" as="geometry" />
        </mxCell>
        <mxCell id="wj3mNSZLk9jR2dblGGt5-113" value="" style="endArrow=classic;html=1;rounded=0;exitX=0.25;exitY=0;exitDx=0;exitDy=0;strokeColor=#FF0000;" parent="1" source="0uM6pgvkFFP_AmX8pPwE-95" edge="1">
          <mxGeometry width="50" height="50" relative="1" as="geometry">
            <mxPoint x="1970" y="1728" as="sourcePoint" />
            <mxPoint x="-40" y="1648" as="targetPoint" />
          </mxGeometry>
        </mxCell>
        <mxCell id="wj3mNSZLk9jR2dblGGt5-114" value="" style="endArrow=classic;html=1;rounded=0;exitX=0.374;exitY=0.009;exitDx=0;exitDy=0;exitPerimeter=0;strokeColor=#FF0000;" parent="1" source="0uM6pgvkFFP_AmX8pPwE-95" edge="1">
          <mxGeometry width="50" height="50" relative="1" as="geometry">
            <mxPoint x="1870" y="1728" as="sourcePoint" />
            <mxPoint x="300" y="1648" as="targetPoint" />
          </mxGeometry>
        </mxCell>
        <mxCell id="wj3mNSZLk9jR2dblGGt5-115" value="is a" style="text;html=1;align=center;verticalAlign=middle;whiteSpace=wrap;rounded=0;" parent="1" vertex="1">
          <mxGeometry x="2120" y="1843" width="60" height="30" as="geometry" />
        </mxCell>
        <mxCell id="wj3mNSZLk9jR2dblGGt5-116" value="&lt;span style=&quot;color: rgb(0, 0, 0); font-family: Helvetica; font-size: 12px; font-style: normal; font-variant-ligatures: normal; font-variant-caps: normal; font-weight: 400; letter-spacing: normal; orphans: 2; text-align: center; text-indent: 0px; text-transform: none; widows: 2; word-spacing: 0px; -webkit-text-stroke-width: 0px; white-space: normal; background-color: rgb(236, 236, 236); text-decoration-thickness: initial; text-decoration-style: initial; text-decoration-color: initial; display: inline !important; float: none;&quot;&gt;is a&lt;/span&gt;" style="text;whiteSpace=wrap;html=1;" parent="1" vertex="1">
          <mxGeometry x="2140" y="1883" width="50" height="40" as="geometry" />
        </mxCell>
        <mxCell id="wj3mNSZLk9jR2dblGGt5-117" value="" style="endArrow=classic;html=1;rounded=0;exitX=0.385;exitY=-0.002;exitDx=0;exitDy=0;exitPerimeter=0;entryX=0.5;entryY=1;entryDx=0;entryDy=0;strokeColor=#0066CC;" parent="1" source="0uM6pgvkFFP_AmX8pPwE-96" target="0uM6pgvkFFP_AmX8pPwE-22" edge="1">
          <mxGeometry width="50" height="50" relative="1" as="geometry">
            <mxPoint x="1910" y="1728" as="sourcePoint" />
            <mxPoint x="1960" y="1678" as="targetPoint" />
          </mxGeometry>
        </mxCell>
        <mxCell id="wj3mNSZLk9jR2dblGGt5-118" value="" style="endArrow=classic;html=1;rounded=0;exitX=0.448;exitY=-0.002;exitDx=0;exitDy=0;exitPerimeter=0;entryX=1;entryY=1;entryDx=0;entryDy=0;strokeColor=#0066CC;" parent="1" source="0uM6pgvkFFP_AmX8pPwE-96" target="0uM6pgvkFFP_AmX8pPwE-24" edge="1">
          <mxGeometry width="50" height="50" relative="1" as="geometry">
            <mxPoint x="2320" y="1728" as="sourcePoint" />
            <mxPoint x="2370" y="1678" as="targetPoint" />
          </mxGeometry>
        </mxCell>
        <mxCell id="wj3mNSZLk9jR2dblGGt5-119" value="&lt;span style=&quot;color: rgb(0, 0, 0); font-family: Helvetica; font-size: 12px; font-style: normal; font-variant-ligatures: normal; font-variant-caps: normal; font-weight: 400; letter-spacing: normal; orphans: 2; text-align: center; text-indent: 0px; text-transform: none; widows: 2; word-spacing: 0px; -webkit-text-stroke-width: 0px; white-space: normal; background-color: rgb(236, 236, 236); text-decoration-thickness: initial; text-decoration-style: initial; text-decoration-color: initial; display: inline !important; float: none;&quot;&gt;is a&lt;/span&gt;" style="text;whiteSpace=wrap;html=1;" parent="1" vertex="1">
          <mxGeometry x="2380" y="1883" width="50" height="40" as="geometry" />
        </mxCell>
        <mxCell id="wj3mNSZLk9jR2dblGGt5-120" value="&lt;span style=&quot;color: rgb(0, 0, 0); font-family: Helvetica; font-size: 12px; font-style: normal; font-variant-ligatures: normal; font-variant-caps: normal; font-weight: 400; letter-spacing: normal; orphans: 2; text-align: center; text-indent: 0px; text-transform: none; widows: 2; word-spacing: 0px; -webkit-text-stroke-width: 0px; white-space: normal; background-color: rgb(236, 236, 236); text-decoration-thickness: initial; text-decoration-style: initial; text-decoration-color: initial; display: inline !important; float: none;&quot;&gt;is a&lt;/span&gt;" style="text;whiteSpace=wrap;html=1;" parent="1" vertex="1">
          <mxGeometry x="2440" y="1853" width="50" height="40" as="geometry" />
        </mxCell>
        <mxCell id="wj3mNSZLk9jR2dblGGt5-121" value="HideLongShotScoutBot" style="swimlane;whiteSpace=wrap;html=1;" parent="1" vertex="1">
          <mxGeometry x="-3760" y="2688" width="200" height="200" as="geometry" />
        </mxCell>
        <mxCell id="wj3mNSZLk9jR2dblGGt5-123" value="HideSemiAutoScoutBot" style="swimlane;whiteSpace=wrap;html=1;" parent="1" vertex="1">
          <mxGeometry x="-3480" y="2688" width="200" height="200" as="geometry" />
        </mxCell>
        <mxCell id="wj3mNSZLk9jR2dblGGt5-124" value="HideThirtyScoutBot" style="swimlane;whiteSpace=wrap;html=1;" parent="1" vertex="1">
          <mxGeometry x="-3210" y="2688" width="200" height="200" as="geometry" />
        </mxCell>
        <mxCell id="wj3mNSZLk9jR2dblGGt5-125" value="HideKnightScoutBot" style="swimlane;whiteSpace=wrap;html=1;" parent="1" vertex="1">
          <mxGeometry x="-2970" y="2688" width="200" height="200" as="geometry" />
        </mxCell>
        <mxCell id="wj3mNSZLk9jR2dblGGt5-126" value="HideQueenScoutBot" style="swimlane;whiteSpace=wrap;html=1;" parent="1" vertex="1">
          <mxGeometry x="-2690" y="2688" width="200" height="200" as="geometry" />
        </mxCell>
        <mxCell id="wj3mNSZLk9jR2dblGGt5-127" value="HideVampireScoutBot" style="swimlane;whiteSpace=wrap;html=1;" parent="1" vertex="1">
          <mxGeometry x="-2420" y="2688" width="200" height="200" as="geometry" />
        </mxCell>
        <mxCell id="wj3mNSZLk9jR2dblGGt5-128" value="JumpLongShotTrackBot" style="swimlane;whiteSpace=wrap;html=1;" parent="1" vertex="1">
          <mxGeometry x="-2160" y="2688" width="200" height="200" as="geometry" />
        </mxCell>
        <mxCell id="wj3mNSZLk9jR2dblGGt5-129" value="JumpSemiAutoTrackBot" style="swimlane;whiteSpace=wrap;html=1;" parent="1" vertex="1">
          <mxGeometry x="-1880" y="2688" width="200" height="200" as="geometry" />
        </mxCell>
        <mxCell id="wj3mNSZLk9jR2dblGGt5-130" value="JumpThirtyShotTrackBot" style="swimlane;whiteSpace=wrap;html=1;" parent="1" vertex="1">
          <mxGeometry x="-1610" y="2688" width="200" height="200" as="geometry" />
        </mxCell>
        <mxCell id="wj3mNSZLk9jR2dblGGt5-131" value="JumpKnightTrackBot" style="swimlane;whiteSpace=wrap;html=1;" parent="1" vertex="1">
          <mxGeometry x="-1360" y="2688" width="200" height="200" as="geometry" />
        </mxCell>
        <mxCell id="wj3mNSZLk9jR2dblGGt5-132" value="JumpQueenTrackBot" style="swimlane;whiteSpace=wrap;html=1;" parent="1" vertex="1">
          <mxGeometry x="-1110" y="2688" width="200" height="200" as="geometry" />
        </mxCell>
        <mxCell id="wj3mNSZLk9jR2dblGGt5-133" value="JumpVampireTrackBot" style="swimlane;whiteSpace=wrap;html=1;" parent="1" vertex="1">
          <mxGeometry x="-870" y="2688" width="200" height="200" as="geometry" />
        </mxCell>
        <mxCell id="wj3mNSZLk9jR2dblGGt5-136" value="HideLongShotTrackBot" style="swimlane;whiteSpace=wrap;html=1;" parent="1" vertex="1">
          <mxGeometry x="-580" y="2688" width="200" height="200" as="geometry" />
        </mxCell>
        <mxCell id="wj3mNSZLk9jR2dblGGt5-137" value="HideSemiAutoTrackBot" style="swimlane;whiteSpace=wrap;html=1;" parent="1" vertex="1">
          <mxGeometry x="-300" y="2688" width="200" height="200" as="geometry" />
        </mxCell>
        <mxCell id="wj3mNSZLk9jR2dblGGt5-138" value="HideThirtyShotTrackBot" style="swimlane;whiteSpace=wrap;html=1;" parent="1" vertex="1">
          <mxGeometry x="-30" y="2688" width="200" height="200" as="geometry" />
        </mxCell>
        <mxCell id="wj3mNSZLk9jR2dblGGt5-139" value="HideKnightTrackBot" style="swimlane;whiteSpace=wrap;html=1;" parent="1" vertex="1">
          <mxGeometry x="210" y="2688" width="200" height="200" as="geometry" />
        </mxCell>
        <mxCell id="wj3mNSZLk9jR2dblGGt5-140" value="HideQueenTrackBot" style="swimlane;whiteSpace=wrap;html=1;" parent="1" vertex="1">
          <mxGeometry x="490" y="2688" width="200" height="200" as="geometry" />
        </mxCell>
        <mxCell id="wj3mNSZLk9jR2dblGGt5-141" value="HideVampireTrackBot" style="swimlane;whiteSpace=wrap;html=1;" parent="1" vertex="1">
          <mxGeometry x="760" y="2688" width="200" height="200" as="geometry" />
        </mxCell>
        <mxCell id="wj3mNSZLk9jR2dblGGt5-142" value="JumpLongShotScoutBot" style="swimlane;whiteSpace=wrap;html=1;" parent="1" vertex="1">
          <mxGeometry x="1020" y="2688" width="200" height="200" as="geometry" />
        </mxCell>
        <mxCell id="wj3mNSZLk9jR2dblGGt5-143" value="JumpSemiAutoScoutBot" style="swimlane;whiteSpace=wrap;html=1;" parent="1" vertex="1">
          <mxGeometry x="1300" y="2688" width="200" height="200" as="geometry" />
        </mxCell>
        <mxCell id="wj3mNSZLk9jR2dblGGt5-144" value="JumpThityShotScoutBot" style="swimlane;whiteSpace=wrap;html=1;" parent="1" vertex="1">
          <mxGeometry x="1570" y="2688" width="200" height="200" as="geometry" />
        </mxCell>
        <mxCell id="wj3mNSZLk9jR2dblGGt5-145" value="JumpKnightScoutBot" style="swimlane;whiteSpace=wrap;html=1;" parent="1" vertex="1">
          <mxGeometry x="1820" y="2688" width="200" height="200" as="geometry" />
        </mxCell>
        <mxCell id="wj3mNSZLk9jR2dblGGt5-146" value="JumpQueenScoutBot" style="swimlane;whiteSpace=wrap;html=1;" parent="1" vertex="1">
          <mxGeometry x="2070" y="2688" width="200" height="200" as="geometry" />
        </mxCell>
        <mxCell id="wj3mNSZLk9jR2dblGGt5-147" value="JumpVampireScoutBot" style="swimlane;whiteSpace=wrap;html=1;" parent="1" vertex="1">
          <mxGeometry x="2310" y="2688" width="200" height="200" as="geometry" />
        </mxCell>
        <mxCell id="wj3mNSZLk9jR2dblGGt5-149" value="" style="endArrow=classic;html=1;rounded=0;exitX=0.151;exitY=-0.011;exitDx=0;exitDy=0;exitPerimeter=0;" parent="1" source="wj3mNSZLk9jR2dblGGt5-121" edge="1">
          <mxGeometry width="50" height="50" relative="1" as="geometry">
            <mxPoint x="-3540" y="2408" as="sourcePoint" />
            <mxPoint x="-4120" y="2088" as="targetPoint" />
          </mxGeometry>
        </mxCell>
        <mxCell id="wj3mNSZLk9jR2dblGGt5-155" value="is a" style="text;html=1;align=center;verticalAlign=middle;whiteSpace=wrap;rounded=0;" parent="1" vertex="1">
          <mxGeometry x="-3845" y="2648" width="60" height="30" as="geometry" />
        </mxCell>
        <mxCell id="wj3mNSZLk9jR2dblGGt5-156" value="&lt;span style=&quot;color: rgb(0, 0, 0); font-family: Helvetica; font-size: 12px; font-style: normal; font-variant-ligatures: normal; font-variant-caps: normal; font-weight: 400; letter-spacing: normal; orphans: 2; text-align: center; text-indent: 0px; text-transform: none; widows: 2; word-spacing: 0px; -webkit-text-stroke-width: 0px; white-space: normal; background-color: rgb(236, 236, 236); text-decoration-thickness: initial; text-decoration-style: initial; text-decoration-color: initial; display: inline !important; float: none;&quot;&gt;is a&lt;/span&gt;" style="text;whiteSpace=wrap;html=1;" parent="1" vertex="1">
          <mxGeometry x="-3730" y="2643" width="50" height="40" as="geometry" />
        </mxCell>
        <mxCell id="wj3mNSZLk9jR2dblGGt5-157" value="" style="endArrow=classic;html=1;rounded=0;exitX=0.25;exitY=0;exitDx=0;exitDy=0;strokeColor=#FF0000;" parent="1" source="wj3mNSZLk9jR2dblGGt5-123" edge="1">
          <mxGeometry width="50" height="50" relative="1" as="geometry">
            <mxPoint x="-3440" y="2388" as="sourcePoint" />
            <mxPoint x="-3840" y="2108" as="targetPoint" />
          </mxGeometry>
        </mxCell>
        <mxCell id="wj3mNSZLk9jR2dblGGt5-159" value="" style="endArrow=classic;html=1;rounded=0;exitX=0.5;exitY=1;exitDx=0;exitDy=0;" parent="1" source="wj3mNSZLk9jR2dblGGt5-156" edge="1">
          <mxGeometry width="50" height="50" relative="1" as="geometry">
            <mxPoint x="-3730" y="2358" as="sourcePoint" />
            <mxPoint x="201.33341471354166" y="1648" as="targetPoint" />
          </mxGeometry>
        </mxCell>
        <mxCell id="wj3mNSZLk9jR2dblGGt5-160" value="" style="endArrow=classic;html=1;rounded=0;exitX=0.25;exitY=0;exitDx=0;exitDy=0;entryX=0.5;entryY=1;entryDx=0;entryDy=0;strokeColor=#FF0000;" parent="1" source="wj3mNSZLk9jR2dblGGt5-123" target="0uM6pgvkFFP_AmX8pPwE-23" edge="1">
          <mxGeometry width="50" height="50" relative="1" as="geometry">
            <mxPoint x="-2920" y="2468" as="sourcePoint" />
            <mxPoint x="-2990" y="2388" as="targetPoint" />
          </mxGeometry>
        </mxCell>
        <mxCell id="wj3mNSZLk9jR2dblGGt5-161" value="&lt;span style=&quot;color: rgb(0, 0, 0); font-family: Helvetica; font-size: 12px; font-style: normal; font-variant-ligatures: normal; font-variant-caps: normal; font-weight: 400; letter-spacing: normal; orphans: 2; text-align: center; text-indent: 0px; text-transform: none; widows: 2; word-spacing: 0px; -webkit-text-stroke-width: 0px; white-space: normal; background-color: rgb(236, 236, 236); text-decoration-thickness: initial; text-decoration-style: initial; text-decoration-color: initial; display: inline !important; float: none;&quot;&gt;is a&lt;/span&gt;" style="text;whiteSpace=wrap;html=1;" parent="1" vertex="1">
          <mxGeometry x="-3490" y="2648" width="50" height="40" as="geometry" />
        </mxCell>
        <mxCell id="wj3mNSZLk9jR2dblGGt5-162" value="&lt;span style=&quot;color: rgb(0, 0, 0); font-family: Helvetica; font-size: 12px; font-style: normal; font-variant-ligatures: normal; font-variant-caps: normal; font-weight: 400; letter-spacing: normal; orphans: 2; text-align: center; text-indent: 0px; text-transform: none; widows: 2; word-spacing: 0px; -webkit-text-stroke-width: 0px; white-space: normal; background-color: rgb(236, 236, 236); text-decoration-thickness: initial; text-decoration-style: initial; text-decoration-color: initial; display: inline !important; float: none;&quot;&gt;is a&lt;/span&gt;" style="text;whiteSpace=wrap;html=1;" parent="1" vertex="1">
          <mxGeometry x="-3410" y="2643" width="50" height="40" as="geometry" />
        </mxCell>
        <mxCell id="wj3mNSZLk9jR2dblGGt5-163" value="" style="endArrow=classic;html=1;rounded=0;exitX=0.438;exitY=-0.006;exitDx=0;exitDy=0;exitPerimeter=0;strokeColor=#FFD966;" parent="1" source="wj3mNSZLk9jR2dblGGt5-124" edge="1">
          <mxGeometry width="50" height="50" relative="1" as="geometry">
            <mxPoint x="-2850" y="2568" as="sourcePoint" />
            <mxPoint x="-3601.0665690104165" y="2088" as="targetPoint" />
          </mxGeometry>
        </mxCell>
        <mxCell id="wj3mNSZLk9jR2dblGGt5-164" value="" style="endArrow=classic;html=1;rounded=0;strokeColor=#FFD966;" parent="1" edge="1">
          <mxGeometry width="50" height="50" relative="1" as="geometry">
            <mxPoint x="-3120" y="2688" as="sourcePoint" />
            <mxPoint x="241.06673177083337" y="1648" as="targetPoint" />
          </mxGeometry>
        </mxCell>
        <mxCell id="wj3mNSZLk9jR2dblGGt5-165" value="&lt;span style=&quot;color: rgb(0, 0, 0); font-family: Helvetica; font-size: 12px; font-style: normal; font-variant-ligatures: normal; font-variant-caps: normal; font-weight: 400; letter-spacing: normal; orphans: 2; text-align: center; text-indent: 0px; text-transform: none; widows: 2; word-spacing: 0px; -webkit-text-stroke-width: 0px; white-space: normal; background-color: rgb(236, 236, 236); text-decoration-thickness: initial; text-decoration-style: initial; text-decoration-color: initial; display: inline !important; float: none;&quot;&gt;is a&lt;/span&gt;" style="text;whiteSpace=wrap;html=1;" parent="1" vertex="1">
          <mxGeometry x="-3190" y="2648" width="50" height="40" as="geometry" />
        </mxCell>
        <mxCell id="wj3mNSZLk9jR2dblGGt5-166" value="&lt;span style=&quot;color: rgb(0, 0, 0); font-family: Helvetica; font-size: 12px; font-style: normal; font-variant-ligatures: normal; font-variant-caps: normal; font-weight: 400; letter-spacing: normal; orphans: 2; text-align: center; text-indent: 0px; text-transform: none; widows: 2; word-spacing: 0px; -webkit-text-stroke-width: 0px; white-space: normal; background-color: rgb(236, 236, 236); text-decoration-thickness: initial; text-decoration-style: initial; text-decoration-color: initial; display: inline !important; float: none;&quot;&gt;is a&lt;/span&gt;" style="text;whiteSpace=wrap;html=1;" parent="1" vertex="1">
          <mxGeometry x="-3110" y="2638" width="50" height="40" as="geometry" />
        </mxCell>
        <mxCell id="wj3mNSZLk9jR2dblGGt5-167" value="" style="endArrow=classic;html=1;rounded=0;exitX=0.385;exitY=-0.001;exitDx=0;exitDy=0;exitPerimeter=0;strokeColor=#F2FF51;" parent="1" source="wj3mNSZLk9jR2dblGGt5-125" edge="1">
          <mxGeometry width="50" height="50" relative="1" as="geometry">
            <mxPoint x="-2810" y="2568" as="sourcePoint" />
            <mxPoint x="-3330" y="2098" as="targetPoint" />
          </mxGeometry>
        </mxCell>
        <mxCell id="wj3mNSZLk9jR2dblGGt5-168" value="" style="endArrow=classic;html=1;rounded=0;exitX=0.433;exitY=-0.017;exitDx=0;exitDy=0;exitPerimeter=0;strokeColor=#F2FF51;" parent="1" source="wj3mNSZLk9jR2dblGGt5-125" edge="1">
          <mxGeometry width="50" height="50" relative="1" as="geometry">
            <mxPoint x="-2810" y="2568" as="sourcePoint" />
            <mxPoint x="252.13346354166663" y="1648" as="targetPoint" />
          </mxGeometry>
        </mxCell>
        <mxCell id="wj3mNSZLk9jR2dblGGt5-169" value="&lt;span style=&quot;color: rgb(0, 0, 0); font-family: Helvetica; font-size: 12px; font-style: normal; font-variant-ligatures: normal; font-variant-caps: normal; font-weight: 400; letter-spacing: normal; orphans: 2; text-align: center; text-indent: 0px; text-transform: none; widows: 2; word-spacing: 0px; -webkit-text-stroke-width: 0px; white-space: normal; background-color: rgb(236, 236, 236); text-decoration-thickness: initial; text-decoration-style: initial; text-decoration-color: initial; display: inline !important; float: none;&quot;&gt;is a&lt;/span&gt;" style="text;whiteSpace=wrap;html=1;" parent="1" vertex="1">
          <mxGeometry x="-2910" y="2628" width="50" height="40" as="geometry" />
        </mxCell>
        <mxCell id="wj3mNSZLk9jR2dblGGt5-170" value="&lt;span style=&quot;color: rgb(0, 0, 0); font-family: Helvetica; font-size: 12px; font-style: normal; font-variant-ligatures: normal; font-variant-caps: normal; font-weight: 400; letter-spacing: normal; orphans: 2; text-align: center; text-indent: 0px; text-transform: none; widows: 2; word-spacing: 0px; -webkit-text-stroke-width: 0px; white-space: normal; background-color: rgb(236, 236, 236); text-decoration-thickness: initial; text-decoration-style: initial; text-decoration-color: initial; display: inline !important; float: none;&quot;&gt;is a&lt;/span&gt;" style="text;whiteSpace=wrap;html=1;" parent="1" vertex="1">
          <mxGeometry x="-2860" y="2638" width="50" height="40" as="geometry" />
        </mxCell>
        <mxCell id="wj3mNSZLk9jR2dblGGt5-171" value="" style="endArrow=classic;html=1;rounded=0;exitX=0.25;exitY=0;exitDx=0;exitDy=0;strokeColor=#00FF00;" parent="1" source="wj3mNSZLk9jR2dblGGt5-126" edge="1">
          <mxGeometry width="50" height="50" relative="1" as="geometry">
            <mxPoint x="-2510" y="2438" as="sourcePoint" />
            <mxPoint x="-3070" y="2088" as="targetPoint" />
          </mxGeometry>
        </mxCell>
        <mxCell id="wj3mNSZLk9jR2dblGGt5-172" value="" style="endArrow=classic;html=1;rounded=0;exitX=0.361;exitY=-0.012;exitDx=0;exitDy=0;exitPerimeter=0;strokeColor=#00FF00;" parent="1" source="wj3mNSZLk9jR2dblGGt5-126" edge="1">
          <mxGeometry width="50" height="50" relative="1" as="geometry">
            <mxPoint x="-2510" y="2698" as="sourcePoint" />
            <mxPoint x="253.19986979166663" y="1648" as="targetPoint" />
          </mxGeometry>
        </mxCell>
        <mxCell id="wj3mNSZLk9jR2dblGGt5-173" value="&lt;span style=&quot;color: rgb(0, 0, 0); font-family: Helvetica; font-size: 12px; font-style: normal; font-variant-ligatures: normal; font-variant-caps: normal; font-weight: 400; letter-spacing: normal; orphans: 2; text-align: center; text-indent: 0px; text-transform: none; widows: 2; word-spacing: 0px; -webkit-text-stroke-width: 0px; white-space: normal; background-color: rgb(236, 236, 236); text-decoration-thickness: initial; text-decoration-style: initial; text-decoration-color: initial; display: inline !important; float: none;&quot;&gt;is a&lt;/span&gt;" style="text;whiteSpace=wrap;html=1;" parent="1" vertex="1">
          <mxGeometry x="-2640" y="2638" width="50" height="40" as="geometry" />
        </mxCell>
        <mxCell id="wj3mNSZLk9jR2dblGGt5-174" value="&lt;span style=&quot;color: rgb(0, 0, 0); font-family: Helvetica; font-size: 12px; font-style: normal; font-variant-ligatures: normal; font-variant-caps: normal; font-weight: 400; letter-spacing: normal; orphans: 2; text-align: center; text-indent: 0px; text-transform: none; widows: 2; word-spacing: 0px; -webkit-text-stroke-width: 0px; white-space: normal; background-color: rgb(236, 236, 236); text-decoration-thickness: initial; text-decoration-style: initial; text-decoration-color: initial; display: inline !important; float: none;&quot;&gt;is a&lt;/span&gt;" style="text;whiteSpace=wrap;html=1;" parent="1" vertex="1">
          <mxGeometry x="-2590" y="2628" width="50" height="40" as="geometry" />
        </mxCell>
        <mxCell id="wj3mNSZLk9jR2dblGGt5-175" value="" style="endArrow=classic;html=1;rounded=0;exitX=0.382;exitY=-0.017;exitDx=0;exitDy=0;exitPerimeter=0;strokeColor=#6E88FF;" parent="1" source="wj3mNSZLk9jR2dblGGt5-127" edge="1">
          <mxGeometry width="50" height="50" relative="1" as="geometry">
            <mxPoint x="-2620" y="2568" as="sourcePoint" />
            <mxPoint x="-2780" y="2088" as="targetPoint" />
          </mxGeometry>
        </mxCell>
        <mxCell id="wj3mNSZLk9jR2dblGGt5-176" value="" style="endArrow=classic;html=1;rounded=0;exitX=0.5;exitY=0;exitDx=0;exitDy=0;strokeColor=#6E88FF;" parent="1" source="wj3mNSZLk9jR2dblGGt5-127" edge="1">
          <mxGeometry width="50" height="50" relative="1" as="geometry">
            <mxPoint x="-2620" y="2698" as="sourcePoint" />
            <mxPoint x="261.06640625" y="1648" as="targetPoint" />
          </mxGeometry>
        </mxCell>
        <mxCell id="wj3mNSZLk9jR2dblGGt5-177" value="&lt;span style=&quot;color: rgb(0, 0, 0); font-family: Helvetica; font-size: 12px; font-style: normal; font-variant-ligatures: normal; font-variant-caps: normal; font-weight: 400; letter-spacing: normal; orphans: 2; text-align: center; text-indent: 0px; text-transform: none; widows: 2; word-spacing: 0px; -webkit-text-stroke-width: 0px; white-space: normal; background-color: rgb(236, 236, 236); text-decoration-thickness: initial; text-decoration-style: initial; text-decoration-color: initial; display: inline !important; float: none;&quot;&gt;is a&lt;/span&gt;" style="text;whiteSpace=wrap;html=1;" parent="1" vertex="1">
          <mxGeometry x="-2370" y="2618" width="50" height="40" as="geometry" />
        </mxCell>
        <mxCell id="wj3mNSZLk9jR2dblGGt5-178" value="&lt;span style=&quot;color: rgb(0, 0, 0); font-family: Helvetica; font-size: 12px; font-style: normal; font-variant-ligatures: normal; font-variant-caps: normal; font-weight: 400; letter-spacing: normal; orphans: 2; text-align: center; text-indent: 0px; text-transform: none; widows: 2; word-spacing: 0px; -webkit-text-stroke-width: 0px; white-space: normal; background-color: rgb(236, 236, 236); text-decoration-thickness: initial; text-decoration-style: initial; text-decoration-color: initial; display: inline !important; float: none;&quot;&gt;is a&lt;/span&gt;" style="text;whiteSpace=wrap;html=1;" parent="1" vertex="1">
          <mxGeometry x="-2320" y="2638" width="50" height="40" as="geometry" />
        </mxCell>
        <mxCell id="wj3mNSZLk9jR2dblGGt5-179" value="" style="endArrow=classic;html=1;rounded=0;exitX=0.304;exitY=-0.014;exitDx=0;exitDy=0;exitPerimeter=0;strokeColor=#1A18FF;" parent="1" source="wj3mNSZLk9jR2dblGGt5-128" edge="1">
          <mxGeometry width="50" height="50" relative="1" as="geometry">
            <mxPoint x="-2410" y="2388" as="sourcePoint" />
            <mxPoint x="-2550" y="2098" as="targetPoint" />
          </mxGeometry>
        </mxCell>
        <mxCell id="wj3mNSZLk9jR2dblGGt5-180" value="" style="endArrow=classic;html=1;rounded=0;exitX=0.395;exitY=-0.002;exitDx=0;exitDy=0;exitPerimeter=0;strokeColor=#1A18FF;" parent="1" source="wj3mNSZLk9jR2dblGGt5-128" edge="1">
          <mxGeometry width="50" height="50" relative="1" as="geometry">
            <mxPoint x="-2410" y="2388" as="sourcePoint" />
            <mxPoint x="561.1429268973214" y="1648" as="targetPoint" />
          </mxGeometry>
        </mxCell>
        <mxCell id="wj3mNSZLk9jR2dblGGt5-181" value="&lt;span style=&quot;color: rgb(0, 0, 0); font-family: Helvetica; font-size: 12px; font-style: normal; font-variant-ligatures: normal; font-variant-caps: normal; font-weight: 400; letter-spacing: normal; orphans: 2; text-align: center; text-indent: 0px; text-transform: none; widows: 2; word-spacing: 0px; -webkit-text-stroke-width: 0px; white-space: normal; background-color: rgb(236, 236, 236); text-decoration-thickness: initial; text-decoration-style: initial; text-decoration-color: initial; display: inline !important; float: none;&quot;&gt;is a&lt;/span&gt;" style="text;whiteSpace=wrap;html=1;" parent="1" vertex="1">
          <mxGeometry x="-2115" y="2628" width="50" height="40" as="geometry" />
        </mxCell>
        <mxCell id="wj3mNSZLk9jR2dblGGt5-182" value="&lt;span style=&quot;color: rgb(0, 0, 0); font-family: Helvetica; font-size: 12px; font-style: normal; font-variant-ligatures: normal; font-variant-caps: normal; font-weight: 400; letter-spacing: normal; orphans: 2; text-align: center; text-indent: 0px; text-transform: none; widows: 2; word-spacing: 0px; -webkit-text-stroke-width: 0px; white-space: normal; background-color: rgb(236, 236, 236); text-decoration-thickness: initial; text-decoration-style: initial; text-decoration-color: initial; display: inline !important; float: none;&quot;&gt;is a&lt;/span&gt;" style="text;whiteSpace=wrap;html=1;" parent="1" vertex="1">
          <mxGeometry x="-2060" y="2628" width="50" height="40" as="geometry" />
        </mxCell>
        <mxCell id="wj3mNSZLk9jR2dblGGt5-183" value="" style="endArrow=classic;html=1;rounded=0;exitX=0.361;exitY=0.015;exitDx=0;exitDy=0;exitPerimeter=0;strokeColor=#660066;" parent="1" source="wj3mNSZLk9jR2dblGGt5-129" edge="1">
          <mxGeometry width="50" height="50" relative="1" as="geometry">
            <mxPoint x="-1990" y="2528" as="sourcePoint" />
            <mxPoint x="-2290" y="2088" as="targetPoint" />
          </mxGeometry>
        </mxCell>
        <mxCell id="wj3mNSZLk9jR2dblGGt5-184" value="" style="endArrow=classic;html=1;rounded=0;exitX=0.384;exitY=0.015;exitDx=0;exitDy=0;exitPerimeter=0;entryX=0.75;entryY=1;entryDx=0;entryDy=0;strokeColor=#660066;" parent="1" source="wj3mNSZLk9jR2dblGGt5-129" target="0uM6pgvkFFP_AmX8pPwE-24" edge="1">
          <mxGeometry width="50" height="50" relative="1" as="geometry">
            <mxPoint x="-1990" y="2528" as="sourcePoint" />
            <mxPoint x="-1940" y="2478" as="targetPoint" />
          </mxGeometry>
        </mxCell>
        <mxCell id="wj3mNSZLk9jR2dblGGt5-185" value="&lt;span style=&quot;color: rgb(0, 0, 0); font-family: Helvetica; font-size: 12px; font-style: normal; font-variant-ligatures: normal; font-variant-caps: normal; font-weight: 400; letter-spacing: normal; orphans: 2; text-align: center; text-indent: 0px; text-transform: none; widows: 2; word-spacing: 0px; -webkit-text-stroke-width: 0px; white-space: normal; background-color: rgb(236, 236, 236); text-decoration-thickness: initial; text-decoration-style: initial; text-decoration-color: initial; display: inline !important; float: none;&quot;&gt;is a&lt;/span&gt;" style="text;whiteSpace=wrap;html=1;" parent="1" vertex="1">
          <mxGeometry x="-1830" y="2638" width="50" height="40" as="geometry" />
        </mxCell>
        <mxCell id="wj3mNSZLk9jR2dblGGt5-186" value="&lt;span style=&quot;color: rgb(0, 0, 0); font-family: Helvetica; font-size: 12px; font-style: normal; font-variant-ligatures: normal; font-variant-caps: normal; font-weight: 400; letter-spacing: normal; orphans: 2; text-align: center; text-indent: 0px; text-transform: none; widows: 2; word-spacing: 0px; -webkit-text-stroke-width: 0px; white-space: normal; background-color: rgb(236, 236, 236); text-decoration-thickness: initial; text-decoration-style: initial; text-decoration-color: initial; display: inline !important; float: none;&quot;&gt;is a&lt;/span&gt;" style="text;whiteSpace=wrap;html=1;" parent="1" vertex="1">
          <mxGeometry x="-1780" y="2638" width="50" height="40" as="geometry" />
        </mxCell>
        <mxCell id="wj3mNSZLk9jR2dblGGt5-187" value="" style="endArrow=classic;html=1;rounded=0;exitX=0.348;exitY=-0.008;exitDx=0;exitDy=0;exitPerimeter=0;strokeColor=#FF2612;" parent="1" source="wj3mNSZLk9jR2dblGGt5-130" edge="1">
          <mxGeometry width="50" height="50" relative="1" as="geometry">
            <mxPoint x="-1660" y="2668" as="sourcePoint" />
            <mxPoint x="-2050" y="2088" as="targetPoint" />
          </mxGeometry>
        </mxCell>
        <mxCell id="wj3mNSZLk9jR2dblGGt5-188" value="" style="endArrow=classic;html=1;rounded=0;exitX=0.4;exitY=0;exitDx=0;exitDy=0;exitPerimeter=0;strokeColor=#FF2612;" parent="1" source="wj3mNSZLk9jR2dblGGt5-130" edge="1">
          <mxGeometry width="50" height="50" relative="1" as="geometry">
            <mxPoint x="-1660" y="2388" as="sourcePoint" />
            <mxPoint x="481.14292689732144" y="1648" as="targetPoint" />
          </mxGeometry>
        </mxCell>
        <mxCell id="wj3mNSZLk9jR2dblGGt5-189" value="&lt;span style=&quot;color: rgb(0, 0, 0); font-family: Helvetica; font-size: 12px; font-style: normal; font-variant-ligatures: normal; font-variant-caps: normal; font-weight: 400; letter-spacing: normal; orphans: 2; text-align: center; text-indent: 0px; text-transform: none; widows: 2; word-spacing: 0px; -webkit-text-stroke-width: 0px; white-space: normal; background-color: rgb(236, 236, 236); text-decoration-thickness: initial; text-decoration-style: initial; text-decoration-color: initial; display: inline !important; float: none;&quot;&gt;is a&lt;/span&gt;" style="text;whiteSpace=wrap;html=1;" parent="1" vertex="1">
          <mxGeometry x="-1559" y="2618" width="50" height="40" as="geometry" />
        </mxCell>
        <mxCell id="wj3mNSZLk9jR2dblGGt5-190" value="&lt;span style=&quot;color: rgb(0, 0, 0); font-family: Helvetica; font-size: 12px; font-style: normal; font-variant-ligatures: normal; font-variant-caps: normal; font-weight: 400; letter-spacing: normal; orphans: 2; text-align: center; text-indent: 0px; text-transform: none; widows: 2; word-spacing: 0px; -webkit-text-stroke-width: 0px; white-space: normal; background-color: rgb(236, 236, 236); text-decoration-thickness: initial; text-decoration-style: initial; text-decoration-color: initial; display: inline !important; float: none;&quot;&gt;is a&lt;/span&gt;" style="text;whiteSpace=wrap;html=1;" parent="1" vertex="1">
          <mxGeometry x="-1494" y="2628" width="50" height="40" as="geometry" />
        </mxCell>
        <mxCell id="wj3mNSZLk9jR2dblGGt5-191" value="" style="endArrow=classic;html=1;rounded=0;exitX=0.25;exitY=0;exitDx=0;exitDy=0;strokeColor=#FFB570;" parent="1" source="wj3mNSZLk9jR2dblGGt5-131" edge="1">
          <mxGeometry width="50" height="50" relative="1" as="geometry">
            <mxPoint x="-1380" y="2238" as="sourcePoint" />
            <mxPoint x="-1780" y="2088" as="targetPoint" />
          </mxGeometry>
        </mxCell>
        <mxCell id="wj3mNSZLk9jR2dblGGt5-192" value="" style="endArrow=classic;html=1;rounded=0;exitX=0.25;exitY=0;exitDx=0;exitDy=0;strokeColor=#FFB570;" parent="1" source="wj3mNSZLk9jR2dblGGt5-131" edge="1">
          <mxGeometry width="50" height="50" relative="1" as="geometry">
            <mxPoint x="-1380" y="2408" as="sourcePoint" />
            <mxPoint x="551.3334147135416" y="1648" as="targetPoint" />
          </mxGeometry>
        </mxCell>
        <mxCell id="wj3mNSZLk9jR2dblGGt5-193" value="&lt;span style=&quot;color: rgb(0, 0, 0); font-family: Helvetica; font-size: 12px; font-style: normal; font-variant-ligatures: normal; font-variant-caps: normal; font-weight: 400; letter-spacing: normal; orphans: 2; text-align: center; text-indent: 0px; text-transform: none; widows: 2; word-spacing: 0px; -webkit-text-stroke-width: 0px; white-space: normal; background-color: rgb(236, 236, 236); text-decoration-thickness: initial; text-decoration-style: initial; text-decoration-color: initial; display: inline !important; float: none;&quot;&gt;is a&lt;/span&gt;" style="text;whiteSpace=wrap;html=1;" parent="1" vertex="1">
          <mxGeometry x="-1338" y="2618" width="50" height="40" as="geometry" />
        </mxCell>
        <mxCell id="wj3mNSZLk9jR2dblGGt5-194" value="&lt;span style=&quot;color: rgb(0, 0, 0); font-family: Helvetica; font-size: 12px; font-style: normal; font-variant-ligatures: normal; font-variant-caps: normal; font-weight: 400; letter-spacing: normal; orphans: 2; text-align: center; text-indent: 0px; text-transform: none; widows: 2; word-spacing: 0px; -webkit-text-stroke-width: 0px; white-space: normal; background-color: rgb(236, 236, 236); text-decoration-thickness: initial; text-decoration-style: initial; text-decoration-color: initial; display: inline !important; float: none;&quot;&gt;is a&lt;/span&gt;" style="text;whiteSpace=wrap;html=1;" parent="1" vertex="1">
          <mxGeometry x="-1265" y="2618" width="50" height="40" as="geometry" />
        </mxCell>
        <mxCell id="wj3mNSZLk9jR2dblGGt5-195" value="" style="endArrow=classic;html=1;rounded=0;exitX=0.25;exitY=0;exitDx=0;exitDy=0;" parent="1" edge="1">
          <mxGeometry width="50" height="50" relative="1" as="geometry">
            <mxPoint x="-1040" y="2683" as="sourcePoint" />
            <mxPoint x="-1550" y="2098" as="targetPoint" />
          </mxGeometry>
        </mxCell>
        <mxCell id="wj3mNSZLk9jR2dblGGt5-196" value="" style="endArrow=classic;html=1;rounded=0;exitX=0.378;exitY=-0.005;exitDx=0;exitDy=0;exitPerimeter=0;" parent="1" source="wj3mNSZLk9jR2dblGGt5-132" edge="1">
          <mxGeometry width="50" height="50" relative="1" as="geometry">
            <mxPoint x="-1220" y="2408" as="sourcePoint" />
            <mxPoint x="515.333251953125" y="1648" as="targetPoint" />
          </mxGeometry>
        </mxCell>
        <mxCell id="wj3mNSZLk9jR2dblGGt5-197" value="&lt;span style=&quot;color: rgb(0, 0, 0); font-family: Helvetica; font-size: 12px; font-style: normal; font-variant-ligatures: normal; font-variant-caps: normal; font-weight: 400; letter-spacing: normal; orphans: 2; text-align: center; text-indent: 0px; text-transform: none; widows: 2; word-spacing: 0px; -webkit-text-stroke-width: 0px; white-space: normal; background-color: rgb(236, 236, 236); text-decoration-thickness: initial; text-decoration-style: initial; text-decoration-color: initial; display: inline !important; float: none;&quot;&gt;is a&lt;/span&gt;" style="text;whiteSpace=wrap;html=1;" parent="1" vertex="1">
          <mxGeometry x="-1065" y="2608" width="50" height="40" as="geometry" />
        </mxCell>
        <mxCell id="wj3mNSZLk9jR2dblGGt5-198" value="&lt;span style=&quot;color: rgb(0, 0, 0); font-family: Helvetica; font-size: 12px; font-style: normal; font-variant-ligatures: normal; font-variant-caps: normal; font-weight: 400; letter-spacing: normal; orphans: 2; text-align: center; text-indent: 0px; text-transform: none; widows: 2; word-spacing: 0px; -webkit-text-stroke-width: 0px; white-space: normal; background-color: rgb(236, 236, 236); text-decoration-thickness: initial; text-decoration-style: initial; text-decoration-color: initial; display: inline !important; float: none;&quot;&gt;is a&lt;/span&gt;" style="text;whiteSpace=wrap;html=1;" parent="1" vertex="1">
          <mxGeometry x="-1015" y="2608" width="50" height="40" as="geometry" />
        </mxCell>
        <mxCell id="wj3mNSZLk9jR2dblGGt5-199" value="" style="endArrow=classic;html=1;rounded=0;exitX=0.385;exitY=0.022;exitDx=0;exitDy=0;exitPerimeter=0;strokeColor=#990099;" parent="1" source="wj3mNSZLk9jR2dblGGt5-133" edge="1">
          <mxGeometry width="50" height="50" relative="1" as="geometry">
            <mxPoint x="-1020" y="2578" as="sourcePoint" />
            <mxPoint x="-1310" y="2088" as="targetPoint" />
          </mxGeometry>
        </mxCell>
        <mxCell id="wj3mNSZLk9jR2dblGGt5-201" value="" style="endArrow=classic;html=1;rounded=0;entryX=0.75;entryY=1;entryDx=0;entryDy=0;exitX=0.5;exitY=0;exitDx=0;exitDy=0;strokeColor=#990099;" parent="1" source="wj3mNSZLk9jR2dblGGt5-133" target="0uM6pgvkFFP_AmX8pPwE-24" edge="1">
          <mxGeometry width="50" height="50" relative="1" as="geometry">
            <mxPoint x="-750" y="2678" as="sourcePoint" />
            <mxPoint x="-10" y="2358" as="targetPoint" />
          </mxGeometry>
        </mxCell>
        <mxCell id="wj3mNSZLk9jR2dblGGt5-202" value="&lt;span style=&quot;color: rgb(0, 0, 0); font-family: Helvetica; font-size: 12px; font-style: normal; font-variant-ligatures: normal; font-variant-caps: normal; font-weight: 400; letter-spacing: normal; orphans: 2; text-align: center; text-indent: 0px; text-transform: none; widows: 2; word-spacing: 0px; -webkit-text-stroke-width: 0px; white-space: normal; background-color: rgb(236, 236, 236); text-decoration-thickness: initial; text-decoration-style: initial; text-decoration-color: initial; display: inline !important; float: none;&quot;&gt;is a&lt;/span&gt;" style="text;whiteSpace=wrap;html=1;" parent="1" vertex="1">
          <mxGeometry x="-830" y="2608" width="50" height="40" as="geometry" />
        </mxCell>
        <mxCell id="wj3mNSZLk9jR2dblGGt5-203" value="&lt;span style=&quot;color: rgb(0, 0, 0); font-family: Helvetica; font-size: 12px; font-style: normal; font-variant-ligatures: normal; font-variant-caps: normal; font-weight: 400; letter-spacing: normal; orphans: 2; text-align: center; text-indent: 0px; text-transform: none; widows: 2; word-spacing: 0px; -webkit-text-stroke-width: 0px; white-space: normal; background-color: rgb(236, 236, 236); text-decoration-thickness: initial; text-decoration-style: initial; text-decoration-color: initial; display: inline !important; float: none;&quot;&gt;is a&lt;/span&gt;" style="text;whiteSpace=wrap;html=1;" parent="1" vertex="1">
          <mxGeometry x="-758" y="2608" width="50" height="40" as="geometry" />
        </mxCell>
        <mxCell id="wj3mNSZLk9jR2dblGGt5-204" value="" style="endArrow=classic;html=1;rounded=0;exitX=0.5;exitY=0;exitDx=0;exitDy=0;" parent="1" source="wj3mNSZLk9jR2dblGGt5-136" edge="1">
          <mxGeometry width="50" height="50" relative="1" as="geometry">
            <mxPoint x="-370" y="2408" as="sourcePoint" />
            <mxPoint x="191.33341471354166" y="2088" as="targetPoint" />
          </mxGeometry>
        </mxCell>
        <mxCell id="wj3mNSZLk9jR2dblGGt5-205" value="" style="endArrow=classic;html=1;rounded=0;" parent="1" edge="1">
          <mxGeometry width="50" height="50" relative="1" as="geometry">
            <mxPoint x="-490" y="2678" as="sourcePoint" />
            <mxPoint x="-1670" y="1648" as="targetPoint" />
          </mxGeometry>
        </mxCell>
        <mxCell id="wj3mNSZLk9jR2dblGGt5-206" value="&lt;span style=&quot;color: rgb(0, 0, 0); font-family: Helvetica; font-size: 12px; font-style: normal; font-variant-ligatures: normal; font-variant-caps: normal; font-weight: 400; letter-spacing: normal; orphans: 2; text-align: center; text-indent: 0px; text-transform: none; widows: 2; word-spacing: 0px; -webkit-text-stroke-width: 0px; white-space: normal; background-color: rgb(236, 236, 236); text-decoration-thickness: initial; text-decoration-style: initial; text-decoration-color: initial; display: inline !important; float: none;&quot;&gt;is a&lt;/span&gt;" style="text;whiteSpace=wrap;html=1;" parent="1" vertex="1">
          <mxGeometry x="-576" y="2638" width="50" height="40" as="geometry" />
        </mxCell>
        <mxCell id="wj3mNSZLk9jR2dblGGt5-207" value="&lt;span style=&quot;color: rgb(0, 0, 0); font-family: Helvetica; font-size: 12px; font-style: normal; font-variant-ligatures: normal; font-variant-caps: normal; font-weight: 400; letter-spacing: normal; orphans: 2; text-align: center; text-indent: 0px; text-transform: none; widows: 2; word-spacing: 0px; -webkit-text-stroke-width: 0px; white-space: normal; background-color: rgb(236, 236, 236); text-decoration-thickness: initial; text-decoration-style: initial; text-decoration-color: initial; display: inline !important; float: none;&quot;&gt;is a&lt;/span&gt;" style="text;whiteSpace=wrap;html=1;" parent="1" vertex="1">
          <mxGeometry x="-479" y="2618" width="50" height="40" as="geometry" />
        </mxCell>
        <mxCell id="wj3mNSZLk9jR2dblGGt5-208" value="" style="endArrow=classic;html=1;rounded=0;exitX=0.564;exitY=-0.002;exitDx=0;exitDy=0;exitPerimeter=0;strokeColor=#990099;" parent="1" source="wj3mNSZLk9jR2dblGGt5-137" edge="1">
          <mxGeometry width="50" height="50" relative="1" as="geometry">
            <mxPoint x="-480" y="2558" as="sourcePoint" />
            <mxPoint x="623.4287806919643" y="2088" as="targetPoint" />
          </mxGeometry>
        </mxCell>
        <mxCell id="wj3mNSZLk9jR2dblGGt5-209" value="" style="endArrow=classic;html=1;rounded=0;exitX=0.552;exitY=0.021;exitDx=0;exitDy=0;exitPerimeter=0;entryX=0.75;entryY=1;entryDx=0;entryDy=0;strokeColor=#990099;" parent="1" source="wj3mNSZLk9jR2dblGGt5-137" target="0uM6pgvkFFP_AmX8pPwE-15" edge="1">
          <mxGeometry width="50" height="50" relative="1" as="geometry">
            <mxPoint x="-260" y="2408" as="sourcePoint" />
            <mxPoint x="-210" y="2358" as="targetPoint" />
          </mxGeometry>
        </mxCell>
        <mxCell id="wj3mNSZLk9jR2dblGGt5-210" value="&lt;span style=&quot;color: rgb(0, 0, 0); font-family: Helvetica; font-size: 12px; font-style: normal; font-variant-ligatures: normal; font-variant-caps: normal; font-weight: 400; letter-spacing: normal; orphans: 2; text-align: center; text-indent: 0px; text-transform: none; widows: 2; word-spacing: 0px; -webkit-text-stroke-width: 0px; white-space: normal; background-color: rgb(236, 236, 236); text-decoration-thickness: initial; text-decoration-style: initial; text-decoration-color: initial; display: inline !important; float: none;&quot;&gt;is a&lt;/span&gt;" style="text;whiteSpace=wrap;html=1;" parent="1" vertex="1">
          <mxGeometry x="-280" y="2658" width="50" height="40" as="geometry" />
        </mxCell>
        <mxCell id="wj3mNSZLk9jR2dblGGt5-211" value="&lt;span style=&quot;color: rgb(0, 0, 0); font-family: Helvetica; font-size: 12px; font-style: normal; font-variant-ligatures: normal; font-variant-caps: normal; font-weight: 400; letter-spacing: normal; orphans: 2; text-align: center; text-indent: 0px; text-transform: none; widows: 2; word-spacing: 0px; -webkit-text-stroke-width: 0px; white-space: normal; background-color: rgb(236, 236, 236); text-decoration-thickness: initial; text-decoration-style: initial; text-decoration-color: initial; display: inline !important; float: none;&quot;&gt;is a&lt;/span&gt;" style="text;whiteSpace=wrap;html=1;" parent="1" vertex="1">
          <mxGeometry x="-179" y="2628" width="50" height="40" as="geometry" />
        </mxCell>
        <mxCell id="wj3mNSZLk9jR2dblGGt5-212" value="" style="endArrow=classic;html=1;rounded=0;exitX=0.572;exitY=-0.018;exitDx=0;exitDy=0;exitPerimeter=0;entryX=0.5;entryY=1;entryDx=0;entryDy=0;strokeColor=#99004D;" parent="1" source="wj3mNSZLk9jR2dblGGt5-138" target="0uM6pgvkFFP_AmX8pPwE-84" edge="1">
          <mxGeometry width="50" height="50" relative="1" as="geometry">
            <mxPoint x="300" y="2348" as="sourcePoint" />
            <mxPoint x="350" y="2298" as="targetPoint" />
          </mxGeometry>
        </mxCell>
        <mxCell id="wj3mNSZLk9jR2dblGGt5-213" value="" style="endArrow=classic;html=1;rounded=0;exitX=0.5;exitY=0;exitDx=0;exitDy=0;strokeColor=#99004D;" parent="1" source="wj3mNSZLk9jR2dblGGt5-138" edge="1">
          <mxGeometry width="50" height="50" relative="1" as="geometry">
            <mxPoint x="300" y="2348" as="sourcePoint" />
            <mxPoint x="-1670" y="1648" as="targetPoint" />
          </mxGeometry>
        </mxCell>
        <mxCell id="wj3mNSZLk9jR2dblGGt5-214" value="&lt;span style=&quot;color: rgb(0, 0, 0); font-family: Helvetica; font-size: 12px; font-style: normal; font-variant-ligatures: normal; font-variant-caps: normal; font-weight: 400; letter-spacing: normal; orphans: 2; text-align: center; text-indent: 0px; text-transform: none; widows: 2; word-spacing: 0px; -webkit-text-stroke-width: 0px; white-space: normal; background-color: rgb(236, 236, 236); text-decoration-thickness: initial; text-decoration-style: initial; text-decoration-color: initial; display: inline !important; float: none;&quot;&gt;is a&lt;/span&gt;" style="text;whiteSpace=wrap;html=1;" parent="1" vertex="1">
          <mxGeometry x="45" y="2618" width="50" height="40" as="geometry" />
        </mxCell>
        <mxCell id="wj3mNSZLk9jR2dblGGt5-215" value="&lt;span style=&quot;color: rgb(0, 0, 0); font-family: Helvetica; font-size: 12px; font-style: normal; font-variant-ligatures: normal; font-variant-caps: normal; font-weight: 400; letter-spacing: normal; orphans: 2; text-align: center; text-indent: 0px; text-transform: none; widows: 2; word-spacing: 0px; -webkit-text-stroke-width: 0px; white-space: normal; background-color: rgb(236, 236, 236); text-decoration-thickness: initial; text-decoration-style: initial; text-decoration-color: initial; display: inline !important; float: none;&quot;&gt;is a&lt;/span&gt;" style="text;whiteSpace=wrap;html=1;" parent="1" vertex="1">
          <mxGeometry x="110" y="2618" width="50" height="40" as="geometry" />
        </mxCell>
        <mxCell id="wj3mNSZLk9jR2dblGGt5-216" value="" style="endArrow=classic;html=1;rounded=0;exitX=0.5;exitY=0;exitDx=0;exitDy=0;strokeColor=#4D4D4D;" parent="1" source="wj3mNSZLk9jR2dblGGt5-139" edge="1">
          <mxGeometry width="50" height="50" relative="1" as="geometry">
            <mxPoint x="250" y="2468" as="sourcePoint" />
            <mxPoint x="1583.9998372395833" y="2088" as="targetPoint" />
          </mxGeometry>
        </mxCell>
        <mxCell id="wj3mNSZLk9jR2dblGGt5-217" value="" style="endArrow=classic;html=1;rounded=0;entryX=0.75;entryY=1;entryDx=0;entryDy=0;strokeColor=#4D4D4D;" parent="1" target="0uM6pgvkFFP_AmX8pPwE-15" edge="1">
          <mxGeometry width="50" height="50" relative="1" as="geometry">
            <mxPoint x="320" y="2688" as="sourcePoint" />
            <mxPoint x="340" y="2588" as="targetPoint" />
          </mxGeometry>
        </mxCell>
        <mxCell id="wj3mNSZLk9jR2dblGGt5-218" value="&lt;span style=&quot;color: rgb(0, 0, 0); font-family: Helvetica; font-size: 12px; font-style: normal; font-variant-ligatures: normal; font-variant-caps: normal; font-weight: 400; letter-spacing: normal; orphans: 2; text-align: center; text-indent: 0px; text-transform: none; widows: 2; word-spacing: 0px; -webkit-text-stroke-width: 0px; white-space: normal; background-color: rgb(236, 236, 236); text-decoration-thickness: initial; text-decoration-style: initial; text-decoration-color: initial; display: inline !important; float: none;&quot;&gt;is a&lt;/span&gt;" style="text;whiteSpace=wrap;html=1;" parent="1" vertex="1">
          <mxGeometry x="270" y="2628" width="50" height="40" as="geometry" />
        </mxCell>
        <mxCell id="wj3mNSZLk9jR2dblGGt5-219" value="&lt;span style=&quot;color: rgb(0, 0, 0); font-family: Helvetica; font-size: 12px; font-style: normal; font-variant-ligatures: normal; font-variant-caps: normal; font-weight: 400; letter-spacing: normal; orphans: 2; text-align: center; text-indent: 0px; text-transform: none; widows: 2; word-spacing: 0px; -webkit-text-stroke-width: 0px; white-space: normal; background-color: rgb(236, 236, 236); text-decoration-thickness: initial; text-decoration-style: initial; text-decoration-color: initial; display: inline !important; float: none;&quot;&gt;is a&lt;/span&gt;" style="text;whiteSpace=wrap;html=1;" parent="1" vertex="1">
          <mxGeometry x="340" y="2628" width="50" height="40" as="geometry" />
        </mxCell>
        <mxCell id="wj3mNSZLk9jR2dblGGt5-220" value="" style="endArrow=classic;html=1;rounded=0;exitX=0.585;exitY=-0.025;exitDx=0;exitDy=0;exitPerimeter=0;strokeColor=#330066;" parent="1" source="wj3mNSZLk9jR2dblGGt5-140" edge="1">
          <mxGeometry width="50" height="50" relative="1" as="geometry">
            <mxPoint x="1100" y="2468" as="sourcePoint" />
            <mxPoint x="2051.3330078125" y="2088" as="targetPoint" />
          </mxGeometry>
        </mxCell>
        <mxCell id="wj3mNSZLk9jR2dblGGt5-221" value="" style="endArrow=classic;html=1;rounded=0;strokeColor=#330066;" parent="1" edge="1">
          <mxGeometry width="50" height="50" relative="1" as="geometry">
            <mxPoint x="600" y="2678" as="sourcePoint" />
            <mxPoint x="-1681.3334147135417" y="1648" as="targetPoint" />
          </mxGeometry>
        </mxCell>
        <mxCell id="wj3mNSZLk9jR2dblGGt5-222" value="&lt;span style=&quot;color: rgb(0, 0, 0); font-family: Helvetica; font-size: 12px; font-style: normal; font-variant-ligatures: normal; font-variant-caps: normal; font-weight: 400; letter-spacing: normal; orphans: 2; text-align: center; text-indent: 0px; text-transform: none; widows: 2; word-spacing: 0px; -webkit-text-stroke-width: 0px; white-space: normal; background-color: rgb(236, 236, 236); text-decoration-thickness: initial; text-decoration-style: initial; text-decoration-color: initial; display: inline !important; float: none;&quot;&gt;is a&lt;/span&gt;" style="text;whiteSpace=wrap;html=1;" parent="1" vertex="1">
          <mxGeometry x="565" y="2628" width="50" height="40" as="geometry" />
        </mxCell>
        <mxCell id="wj3mNSZLk9jR2dblGGt5-223" value="&lt;span style=&quot;color: rgb(0, 0, 0); font-family: Helvetica; font-size: 12px; font-style: normal; font-variant-ligatures: normal; font-variant-caps: normal; font-weight: 400; letter-spacing: normal; orphans: 2; text-align: center; text-indent: 0px; text-transform: none; widows: 2; word-spacing: 0px; -webkit-text-stroke-width: 0px; white-space: normal; background-color: rgb(236, 236, 236); text-decoration-thickness: initial; text-decoration-style: initial; text-decoration-color: initial; display: inline !important; float: none;&quot;&gt;is a&lt;/span&gt;" style="text;whiteSpace=wrap;html=1;" parent="1" vertex="1">
          <mxGeometry x="620" y="2628" width="50" height="40" as="geometry" />
        </mxCell>
        <mxCell id="wj3mNSZLk9jR2dblGGt5-224" value="" style="endArrow=classic;html=1;rounded=0;entryX=0.5;entryY=1;entryDx=0;entryDy=0;" parent="1" target="0uM6pgvkFFP_AmX8pPwE-96" edge="1">
          <mxGeometry width="50" height="50" relative="1" as="geometry">
            <mxPoint x="860" y="2678" as="sourcePoint" />
            <mxPoint x="870" y="2588" as="targetPoint" />
          </mxGeometry>
        </mxCell>
        <mxCell id="wj3mNSZLk9jR2dblGGt5-225" value="" style="endArrow=classic;html=1;rounded=0;" parent="1" edge="1">
          <mxGeometry width="50" height="50" relative="1" as="geometry">
            <mxPoint x="860" y="2678" as="sourcePoint" />
            <mxPoint x="-1660" y="1648" as="targetPoint" />
          </mxGeometry>
        </mxCell>
        <mxCell id="wj3mNSZLk9jR2dblGGt5-226" value="&lt;span style=&quot;color: rgb(0, 0, 0); font-family: Helvetica; font-size: 12px; font-style: normal; font-variant-ligatures: normal; font-variant-caps: normal; font-weight: 400; letter-spacing: normal; orphans: 2; text-align: center; text-indent: 0px; text-transform: none; widows: 2; word-spacing: 0px; -webkit-text-stroke-width: 0px; white-space: normal; background-color: rgb(236, 236, 236); text-decoration-thickness: initial; text-decoration-style: initial; text-decoration-color: initial; display: inline !important; float: none;&quot;&gt;is a&lt;/span&gt;" style="text;whiteSpace=wrap;html=1;" parent="1" vertex="1">
          <mxGeometry x="770" y="2643" width="50" height="40" as="geometry" />
        </mxCell>
        <mxCell id="wj3mNSZLk9jR2dblGGt5-227" value="&lt;span style=&quot;color: rgb(0, 0, 0); font-family: Helvetica; font-size: 12px; font-style: normal; font-variant-ligatures: normal; font-variant-caps: normal; font-weight: 400; letter-spacing: normal; orphans: 2; text-align: center; text-indent: 0px; text-transform: none; widows: 2; word-spacing: 0px; -webkit-text-stroke-width: 0px; white-space: normal; background-color: rgb(236, 236, 236); text-decoration-thickness: initial; text-decoration-style: initial; text-decoration-color: initial; display: inline !important; float: none;&quot;&gt;is a&lt;/span&gt;" style="text;whiteSpace=wrap;html=1;" parent="1" vertex="1">
          <mxGeometry x="860" y="2628" width="50" height="40" as="geometry" />
        </mxCell>
        <mxCell id="wj3mNSZLk9jR2dblGGt5-228" value="" style="endArrow=classic;html=1;rounded=0;exitX=0.362;exitY=-0.018;exitDx=0;exitDy=0;exitPerimeter=0;strokeColor=#00994D;" parent="1" source="wj3mNSZLk9jR2dblGGt5-142" edge="1">
          <mxGeometry width="50" height="50" relative="1" as="geometry">
            <mxPoint x="620" y="2468" as="sourcePoint" />
            <mxPoint x="-80" y="2088" as="targetPoint" />
          </mxGeometry>
        </mxCell>
        <mxCell id="wj3mNSZLk9jR2dblGGt5-229" value="" style="endArrow=classic;html=1;rounded=0;exitX=0.442;exitY=-0.018;exitDx=0;exitDy=0;exitPerimeter=0;strokeColor=#00994D;" parent="1" source="wj3mNSZLk9jR2dblGGt5-142" edge="1">
          <mxGeometry width="50" height="50" relative="1" as="geometry">
            <mxPoint x="540" y="2308" as="sourcePoint" />
            <mxPoint x="260" y="1648" as="targetPoint" />
          </mxGeometry>
        </mxCell>
        <mxCell id="wj3mNSZLk9jR2dblGGt5-230" value="&lt;span style=&quot;color: rgb(0, 0, 0); font-family: Helvetica; font-size: 12px; font-style: normal; font-variant-ligatures: normal; font-variant-caps: normal; font-weight: 400; letter-spacing: normal; orphans: 2; text-align: center; text-indent: 0px; text-transform: none; widows: 2; word-spacing: 0px; -webkit-text-stroke-width: 0px; white-space: normal; background-color: rgb(236, 236, 236); text-decoration-thickness: initial; text-decoration-style: initial; text-decoration-color: initial; display: inline !important; float: none;&quot;&gt;is a&lt;/span&gt;" style="text;whiteSpace=wrap;html=1;" parent="1" vertex="1">
          <mxGeometry x="960" y="2588" width="50" height="40" as="geometry" />
        </mxCell>
        <mxCell id="wj3mNSZLk9jR2dblGGt5-231" value="&lt;span style=&quot;color: rgb(0, 0, 0); font-family: Helvetica; font-size: 12px; font-style: normal; font-variant-ligatures: normal; font-variant-caps: normal; font-weight: 400; letter-spacing: normal; orphans: 2; text-align: center; text-indent: 0px; text-transform: none; widows: 2; word-spacing: 0px; -webkit-text-stroke-width: 0px; white-space: normal; background-color: rgb(236, 236, 236); text-decoration-thickness: initial; text-decoration-style: initial; text-decoration-color: initial; display: inline !important; float: none;&quot;&gt;is a&lt;/span&gt;" style="text;whiteSpace=wrap;html=1;" parent="1" vertex="1">
          <mxGeometry x="1110" y="2638" width="50" height="40" as="geometry" />
        </mxCell>
        <mxCell id="wj3mNSZLk9jR2dblGGt5-232" value="" style="endArrow=classic;html=1;rounded=0;exitX=0.415;exitY=0.022;exitDx=0;exitDy=0;exitPerimeter=0;entryX=0.5;entryY=1;entryDx=0;entryDy=0;" parent="1" source="wj3mNSZLk9jR2dblGGt5-143" target="0uM6pgvkFFP_AmX8pPwE-81" edge="1">
          <mxGeometry width="50" height="50" relative="1" as="geometry">
            <mxPoint x="1650" y="2468" as="sourcePoint" />
            <mxPoint x="1700" y="2418" as="targetPoint" />
          </mxGeometry>
        </mxCell>
        <mxCell id="wj3mNSZLk9jR2dblGGt5-233" value="" style="endArrow=classic;html=1;rounded=0;exitX=0.5;exitY=0;exitDx=0;exitDy=0;" parent="1" source="wj3mNSZLk9jR2dblGGt5-143" edge="1">
          <mxGeometry width="50" height="50" relative="1" as="geometry">
            <mxPoint x="680" y="2308" as="sourcePoint" />
            <mxPoint x="-1430" y="1648" as="targetPoint" />
          </mxGeometry>
        </mxCell>
        <mxCell id="wj3mNSZLk9jR2dblGGt5-234" value="&lt;span style=&quot;color: rgb(0, 0, 0); font-family: Helvetica; font-size: 12px; font-style: normal; font-variant-ligatures: normal; font-variant-caps: normal; font-weight: 400; letter-spacing: normal; orphans: 2; text-align: center; text-indent: 0px; text-transform: none; widows: 2; word-spacing: 0px; -webkit-text-stroke-width: 0px; white-space: normal; background-color: rgb(236, 236, 236); text-decoration-thickness: initial; text-decoration-style: initial; text-decoration-color: initial; display: inline !important; float: none;&quot;&gt;is a&lt;/span&gt;" style="text;whiteSpace=wrap;html=1;" parent="1" vertex="1">
          <mxGeometry x="1360" y="2638" width="50" height="40" as="geometry" />
        </mxCell>
        <mxCell id="wj3mNSZLk9jR2dblGGt5-235" value="&lt;span style=&quot;color: rgb(0, 0, 0); font-family: Helvetica; font-size: 12px; font-style: normal; font-variant-ligatures: normal; font-variant-caps: normal; font-weight: 400; letter-spacing: normal; orphans: 2; text-align: center; text-indent: 0px; text-transform: none; widows: 2; word-spacing: 0px; -webkit-text-stroke-width: 0px; white-space: normal; background-color: rgb(236, 236, 236); text-decoration-thickness: initial; text-decoration-style: initial; text-decoration-color: initial; display: inline !important; float: none;&quot;&gt;is a&lt;/span&gt;" style="text;whiteSpace=wrap;html=1;" parent="1" vertex="1">
          <mxGeometry x="1260" y="2648" width="50" height="40" as="geometry" />
        </mxCell>
        <mxCell id="wj3mNSZLk9jR2dblGGt5-236" value="" style="endArrow=classic;html=1;rounded=0;exitX=0.592;exitY=-0.012;exitDx=0;exitDy=0;exitPerimeter=0;entryX=0.5;entryY=1;entryDx=0;entryDy=0;strokeColor=#FFD966;" parent="1" source="wj3mNSZLk9jR2dblGGt5-144" target="0uM6pgvkFFP_AmX8pPwE-83" edge="1">
          <mxGeometry width="50" height="50" relative="1" as="geometry">
            <mxPoint x="1920" y="2468" as="sourcePoint" />
            <mxPoint x="1970" y="2418" as="targetPoint" />
          </mxGeometry>
        </mxCell>
        <mxCell id="wj3mNSZLk9jR2dblGGt5-237" value="" style="endArrow=classic;html=1;rounded=0;exitX=0.65;exitY=0;exitDx=0;exitDy=0;exitPerimeter=0;strokeColor=#FFD966;" parent="1" source="wj3mNSZLk9jR2dblGGt5-144" edge="1">
          <mxGeometry width="50" height="50" relative="1" as="geometry">
            <mxPoint x="1500" y="2468" as="sourcePoint" />
            <mxPoint x="-1430" y="1648" as="targetPoint" />
          </mxGeometry>
        </mxCell>
        <mxCell id="wj3mNSZLk9jR2dblGGt5-238" value="&lt;span style=&quot;color: rgb(0, 0, 0); font-family: Helvetica; font-size: 12px; font-style: normal; font-variant-ligatures: normal; font-variant-caps: normal; font-weight: 400; letter-spacing: normal; orphans: 2; text-align: center; text-indent: 0px; text-transform: none; widows: 2; word-spacing: 0px; -webkit-text-stroke-width: 0px; white-space: normal; background-color: rgb(236, 236, 236); text-decoration-thickness: initial; text-decoration-style: initial; text-decoration-color: initial; display: inline !important; float: none;&quot;&gt;is a&lt;/span&gt;" style="text;whiteSpace=wrap;html=1;" parent="1" vertex="1">
          <mxGeometry x="1655" y="2618" width="50" height="40" as="geometry" />
        </mxCell>
        <mxCell id="wj3mNSZLk9jR2dblGGt5-239" value="&lt;span style=&quot;color: rgb(0, 0, 0); font-family: Helvetica; font-size: 12px; font-style: normal; font-variant-ligatures: normal; font-variant-caps: normal; font-weight: 400; letter-spacing: normal; orphans: 2; text-align: center; text-indent: 0px; text-transform: none; widows: 2; word-spacing: 0px; -webkit-text-stroke-width: 0px; white-space: normal; background-color: rgb(236, 236, 236); text-decoration-thickness: initial; text-decoration-style: initial; text-decoration-color: initial; display: inline !important; float: none;&quot;&gt;is a&lt;/span&gt;" style="text;whiteSpace=wrap;html=1;" parent="1" vertex="1">
          <mxGeometry x="1540" y="2648" width="50" height="40" as="geometry" />
        </mxCell>
        <mxCell id="wj3mNSZLk9jR2dblGGt5-240" value="" style="endArrow=classic;html=1;rounded=0;exitX=0.5;exitY=0;exitDx=0;exitDy=0;entryX=0.5;entryY=1;entryDx=0;entryDy=0;strokeColor=#CC00CC;" parent="1" source="wj3mNSZLk9jR2dblGGt5-145" target="0uM6pgvkFFP_AmX8pPwE-85" edge="1">
          <mxGeometry width="50" height="50" relative="1" as="geometry">
            <mxPoint x="1630" y="2468" as="sourcePoint" />
            <mxPoint x="1680" y="2418" as="targetPoint" />
          </mxGeometry>
        </mxCell>
        <mxCell id="wj3mNSZLk9jR2dblGGt5-241" value="" style="endArrow=classic;html=1;rounded=0;exitX=0.5;exitY=0;exitDx=0;exitDy=0;strokeColor=#CC00CC;" parent="1" source="wj3mNSZLk9jR2dblGGt5-145" edge="1">
          <mxGeometry width="50" height="50" relative="1" as="geometry">
            <mxPoint x="1120" y="2468" as="sourcePoint" />
            <mxPoint x="-1420" y="1658" as="targetPoint" />
          </mxGeometry>
        </mxCell>
        <mxCell id="wj3mNSZLk9jR2dblGGt5-242" value="&lt;span style=&quot;color: rgb(0, 0, 0); font-family: Helvetica; font-size: 12px; font-style: normal; font-variant-ligatures: normal; font-variant-caps: normal; font-weight: 400; letter-spacing: normal; orphans: 2; text-align: center; text-indent: 0px; text-transform: none; widows: 2; word-spacing: 0px; -webkit-text-stroke-width: 0px; white-space: normal; background-color: rgb(236, 236, 236); text-decoration-thickness: initial; text-decoration-style: initial; text-decoration-color: initial; display: inline !important; float: none;&quot;&gt;is a&lt;/span&gt;" style="text;whiteSpace=wrap;html=1;" parent="1" vertex="1">
          <mxGeometry x="1895" y="2618" width="50" height="40" as="geometry" />
        </mxCell>
        <mxCell id="wj3mNSZLk9jR2dblGGt5-243" value="&lt;span style=&quot;color: rgb(0, 0, 0); font-family: Helvetica; font-size: 12px; font-style: normal; font-variant-ligatures: normal; font-variant-caps: normal; font-weight: 400; letter-spacing: normal; orphans: 2; text-align: center; text-indent: 0px; text-transform: none; widows: 2; word-spacing: 0px; -webkit-text-stroke-width: 0px; white-space: normal; background-color: rgb(236, 236, 236); text-decoration-thickness: initial; text-decoration-style: initial; text-decoration-color: initial; display: inline !important; float: none;&quot;&gt;is a&lt;/span&gt;" style="text;whiteSpace=wrap;html=1;" parent="1" vertex="1">
          <mxGeometry x="1790" y="2608" width="50" height="40" as="geometry" />
        </mxCell>
        <mxCell id="wj3mNSZLk9jR2dblGGt5-244" value="" style="endArrow=classic;html=1;rounded=0;exitX=0.638;exitY=-0.005;exitDx=0;exitDy=0;exitPerimeter=0;entryX=0.5;entryY=1;entryDx=0;entryDy=0;strokeColor=#009999;" parent="1" source="wj3mNSZLk9jR2dblGGt5-146" target="0uM6pgvkFFP_AmX8pPwE-89" edge="1">
          <mxGeometry width="50" height="50" relative="1" as="geometry">
            <mxPoint x="1990" y="2468" as="sourcePoint" />
            <mxPoint x="2040" y="2418" as="targetPoint" />
          </mxGeometry>
        </mxCell>
        <mxCell id="wj3mNSZLk9jR2dblGGt5-245" value="" style="endArrow=classic;html=1;rounded=0;strokeColor=#009999;" parent="1" edge="1">
          <mxGeometry width="50" height="50" relative="1" as="geometry">
            <mxPoint x="2160" y="2678" as="sourcePoint" />
            <mxPoint x="-1438.0000813802083" y="1648" as="targetPoint" />
          </mxGeometry>
        </mxCell>
        <mxCell id="wj3mNSZLk9jR2dblGGt5-246" value="&lt;span style=&quot;color: rgb(0, 0, 0); font-family: Helvetica; font-size: 12px; font-style: normal; font-variant-ligatures: normal; font-variant-caps: normal; font-weight: 400; letter-spacing: normal; orphans: 2; text-align: center; text-indent: 0px; text-transform: none; widows: 2; word-spacing: 0px; -webkit-text-stroke-width: 0px; white-space: normal; background-color: rgb(236, 236, 236); text-decoration-thickness: initial; text-decoration-style: initial; text-decoration-color: initial; display: inline !important; float: none;&quot;&gt;is a&lt;/span&gt;" style="text;whiteSpace=wrap;html=1;" parent="1" vertex="1">
          <mxGeometry x="2070" y="2618" width="50" height="40" as="geometry" />
        </mxCell>
        <mxCell id="wj3mNSZLk9jR2dblGGt5-247" value="&lt;span style=&quot;color: rgb(0, 0, 0); font-family: Helvetica; font-size: 12px; font-style: normal; font-variant-ligatures: normal; font-variant-caps: normal; font-weight: 400; letter-spacing: normal; orphans: 2; text-align: center; text-indent: 0px; text-transform: none; widows: 2; word-spacing: 0px; -webkit-text-stroke-width: 0px; white-space: normal; background-color: rgb(236, 236, 236); text-decoration-thickness: initial; text-decoration-style: initial; text-decoration-color: initial; display: inline !important; float: none;&quot;&gt;is a&lt;/span&gt;" style="text;whiteSpace=wrap;html=1;" parent="1" vertex="1">
          <mxGeometry x="2190" y="2618" width="50" height="40" as="geometry" />
        </mxCell>
        <mxCell id="wj3mNSZLk9jR2dblGGt5-248" value="" style="endArrow=classic;html=1;rounded=0;exitX=0.5;exitY=0;exitDx=0;exitDy=0;entryX=0.5;entryY=1;entryDx=0;entryDy=0;strokeColor=#999900;" parent="1" source="wj3mNSZLk9jR2dblGGt5-147" target="0uM6pgvkFFP_AmX8pPwE-95" edge="1">
          <mxGeometry width="50" height="50" relative="1" as="geometry">
            <mxPoint x="2260" y="2308" as="sourcePoint" />
            <mxPoint x="2310" y="2258" as="targetPoint" />
          </mxGeometry>
        </mxCell>
        <mxCell id="wj3mNSZLk9jR2dblGGt5-249" value="" style="endArrow=classic;html=1;rounded=0;exitX=0.378;exitY=0.002;exitDx=0;exitDy=0;exitPerimeter=0;strokeColor=#999900;" parent="1" source="wj3mNSZLk9jR2dblGGt5-147" edge="1">
          <mxGeometry width="50" height="50" relative="1" as="geometry">
            <mxPoint x="2260" y="2468" as="sourcePoint" />
            <mxPoint x="-1410" y="1648" as="targetPoint" />
          </mxGeometry>
        </mxCell>
        <mxCell id="wj3mNSZLk9jR2dblGGt5-250" value="&lt;span style=&quot;color: rgb(0, 0, 0); font-family: Helvetica; font-size: 12px; font-style: normal; font-variant-ligatures: normal; font-variant-caps: normal; font-weight: 400; letter-spacing: normal; orphans: 2; text-align: center; text-indent: 0px; text-transform: none; widows: 2; word-spacing: 0px; -webkit-text-stroke-width: 0px; white-space: normal; background-color: rgb(236, 236, 236); text-decoration-thickness: initial; text-decoration-style: initial; text-decoration-color: initial; display: inline !important; float: none;&quot;&gt;is a&lt;/span&gt;" style="text;whiteSpace=wrap;html=1;" parent="1" vertex="1">
          <mxGeometry x="2420" y="2628" width="50" height="40" as="geometry" />
        </mxCell>
        <mxCell id="wj3mNSZLk9jR2dblGGt5-251" value="&lt;span style=&quot;color: rgb(0, 0, 0); font-family: Helvetica; font-size: 12px; font-style: normal; font-variant-ligatures: normal; font-variant-caps: normal; font-weight: 400; letter-spacing: normal; orphans: 2; text-align: center; text-indent: 0px; text-transform: none; widows: 2; word-spacing: 0px; -webkit-text-stroke-width: 0px; white-space: normal; background-color: rgb(236, 236, 236); text-decoration-thickness: initial; text-decoration-style: initial; text-decoration-color: initial; display: inline !important; float: none;&quot;&gt;is a&lt;/span&gt;" style="text;whiteSpace=wrap;html=1;" parent="1" vertex="1">
          <mxGeometry x="2320" y="2643" width="50" height="40" as="geometry" />
        </mxCell>
      </root>
    </mxGraphModel>
  </diagram>
</mxfile>
